<svg width="120" height="43" viewBox="0 0 120 43" fill="none" xmlns="http://www.w3.org/2000/svg">
<g clip-path="url(#clip0_47_53092)">
<path d="M3.41016 1.1781L116.762 1.37732C118.348 1.37732 119.762 1.14294 119.762 4.54138L119.621 41.8695H0.546875V4.40076C0.546875 2.72498 0.710938 1.1781 3.41016 1.1781Z" fill="#AAB2AB"/>
<path d="M117.754 0.724976H2.24609C1.00781 0.724976 0 1.73279 0 2.97107V42.2172C0 42.4984 0.226563 42.725 0.507813 42.725H119.492C119.773 42.725 120 42.4984 120 42.2172V2.97107C120 1.73279 118.992 0.724976 117.754 0.724976ZM2.24609 1.7406H117.754C118.434 1.7406 118.984 2.29138 118.984 2.97107C118.984 2.97107 118.984 18.7679 118.984 30.1937H36.4297C33.4023 35.6625 27.5703 39.3773 20.8828 39.3773C14.1875 39.3773 8.35938 35.6664 5.33594 30.1937H1.01562C1.01562 18.7679 1.01562 2.97107 1.01562 2.97107C1.01562 2.29138 1.56641 1.7406 2.24609 1.7406Z" fill="black"/>
<path d="M34.5234 20.2758C34.5274 27.807 28.4258 33.9125 20.8945 33.9164C13.3672 33.9242 7.25782 27.8226 7.25391 20.2914C7.25391 20.2875 7.25391 20.2836 7.25391 20.2758C7.2461 12.7484 13.3477 6.63904 20.8789 6.63513C28.4102 6.63123 34.5195 12.7289 34.5234 20.2601C34.5234 20.264 34.5234 20.2719 34.5234 20.2758Z" fill="white"/>
<path d="M31.9727 9.17029C34.9961 12.1937 36.5078 15.8969 36.5078 20.2758C36.5078 24.6547 35.0195 28.3187 32.0508 31.264C28.8945 34.3656 25.168 35.9164 20.8672 35.9164C16.6172 35.9164 12.957 34.3773 9.88281 31.3031C6.80469 28.2289 5.26953 24.5531 5.26953 20.2758C5.26953 16.0023 6.80469 12.2992 9.88281 9.17029C12.8789 6.14685 16.5391 4.63513 20.8672 4.63513C25.2461 4.63513 28.9492 6.14685 31.9727 9.17029ZM11.918 11.2054C9.35938 13.7875 8.08203 16.8109 8.08203 20.2797C8.08203 23.7484 9.34766 26.7484 11.875 29.2758C14.4062 31.807 17.418 33.0687 20.9141 33.0687C24.4102 33.0687 27.4453 31.7914 30.0273 29.2367C32.4805 26.8656 33.707 23.8773 33.707 20.2797C33.707 16.7094 32.4609 13.6781 29.9688 11.1859C27.4766 8.69763 24.4609 7.45154 20.9141 7.45154C17.3672 7.45154 14.3672 8.70154 11.918 11.2054ZM18.6445 18.7562C18.2539 17.9047 17.668 17.4789 16.8867 17.4789C15.5117 17.4789 14.8203 18.4047 14.8203 20.2601C14.8203 22.1156 15.5117 23.0453 16.8867 23.0453C17.7969 23.0453 18.4492 22.5922 18.8398 21.6859L20.75 22.7054C19.8398 24.3226 18.4727 25.1312 16.6523 25.1312C15.2461 25.1312 14.1211 24.7015 13.2734 23.8383C12.4297 22.9789 12.0039 21.7914 12.0039 20.2758C12.0039 18.7875 12.4414 17.6078 13.3125 16.7328C14.1836 15.8578 15.2734 15.4203 16.5742 15.4203C18.5 15.4203 19.8789 16.1781 20.7109 17.6976L18.6445 18.7562ZM27.6328 18.7562C27.2422 17.9047 26.668 17.4789 25.9141 17.4789C24.5078 17.4789 23.8047 18.4047 23.8047 20.2601C23.8047 22.1156 24.5078 23.0453 25.9141 23.0453C26.8281 23.0453 27.4648 22.5922 27.8281 21.6859L29.7812 22.7054C28.8711 24.3226 27.5078 25.1312 25.6914 25.1312C24.2852 25.1312 23.1641 24.7015 22.3164 23.8383C21.4766 22.9789 21.0508 21.7914 21.0508 20.2758C21.0508 18.7875 21.4805 17.6078 22.3398 16.7328C23.1953 15.8578 24.2852 15.4203 25.6133 15.4203C27.5352 15.4203 28.9102 16.1781 29.7422 17.6976L27.6328 18.7562Z" fill="black"/>
<path d="M62.5039 15.9476C62.5039 21.8773 57.6953 26.6859 51.7617 26.6859C45.832 26.6859 41.0234 21.8773 41.0234 15.9476C41.0234 10.0179 45.832 5.20935 51.7617 5.20935C57.6953 5.20935 62.5039 10.0179 62.5039 15.9476Z" fill="white"/>
<path d="M54.8711 12.8422C54.8711 12.4281 54.5352 12.0922 54.1211 12.0922H49.3789C48.9648 12.0922 48.6289 12.4281 48.6289 12.8422V17.5843H49.9531V23.2015H53.5469V17.5843H54.8711V12.8422Z" fill="black"/>
<path d="M53.3711 9.84607C53.3711 10.7406 52.6484 11.4672 51.75 11.4672C50.8555 11.4672 50.1289 10.7406 50.1289 9.84607C50.1289 8.95154 50.8555 8.22498 51.75 8.22498C52.6484 8.22498 53.3711 8.95154 53.3711 9.84607Z" fill="black"/>
<path fill-rule="evenodd" clip-rule="evenodd" d="M51.7344 4.1156C48.5234 4.1156 45.8047 5.23669 43.5781 7.47888C41.2969 9.79919 40.1562 12.5414 40.1562 15.7133C40.1562 18.8812 41.2969 21.6078 43.5781 23.8851C45.8633 26.1664 48.582 27.307 51.7344 27.307C54.9297 27.307 57.6953 26.1586 60.0391 23.8578C62.2461 21.6742 63.3477 18.9594 63.3477 15.7133C63.3477 12.4633 62.2266 9.72107 59.9805 7.47888C57.7344 5.23669 54.9883 4.1156 51.7344 4.1156ZM51.7656 6.20544C54.3984 6.20544 56.6328 7.13123 58.4688 8.98669C60.3281 10.8226 61.2578 13.0648 61.2578 15.7133C61.2578 18.3773 60.3477 20.5922 58.5273 22.35C56.6133 24.2445 54.3594 25.1898 51.7656 25.1898C49.1719 25.1898 46.9375 24.2523 45.0586 22.3773C43.1836 20.5062 42.2461 18.2836 42.2461 15.7133C42.2461 13.1429 43.1914 10.9008 45.0898 8.98669C46.9102 7.13123 49.1328 6.20544 51.7656 6.20544Z" fill="black"/>
<path d="M48.4023 33.4711C48.7148 33.4711 49.0039 33.5023 49.2656 33.557C49.5234 33.6117 49.75 33.7015 49.9336 33.8304C50.1211 33.9554 50.2617 34.1234 50.3672 34.3344C50.4687 34.5453 50.5195 34.8031 50.5195 35.1117C50.5195 35.4476 50.4453 35.725 50.293 35.9476C50.1406 36.1703 49.9141 36.35 49.6172 36.4945C50.0273 36.6117 50.332 36.8187 50.5352 37.1117C50.7383 37.4047 50.8398 37.7601 50.8398 38.1742C50.8398 38.5062 50.7734 38.7953 50.6445 39.0414C50.5117 39.2836 50.3359 39.4867 50.1172 39.639C49.8984 39.7953 49.6445 39.9086 49.3633 39.9828C49.082 40.057 48.793 40.0961 48.4961 40.0961H45.2773V33.4711H48.4023ZM48.2148 36.1508C48.4766 36.1508 48.6875 36.0883 48.8555 35.9672C49.0234 35.8422 49.1055 35.6429 49.1055 35.3656C49.1055 35.2094 49.0781 35.0844 49.0234 34.9867C48.9687 34.8851 48.8945 34.8109 48.8008 34.7523C48.707 34.6976 48.6016 34.6586 48.4805 34.639C48.3594 34.6156 48.2344 34.6039 48.1016 34.6039H46.7383V36.1508H48.2148ZM48.3008 38.9594C48.4414 38.9594 48.5781 38.9476 48.707 38.9203C48.8398 38.8929 48.9531 38.8461 49.0547 38.7797C49.1523 38.7172 49.2305 38.6273 49.2891 38.514C49.3477 38.4047 49.3789 38.264 49.3789 38.0883C49.3789 37.7484 49.2812 37.5062 49.0898 37.3617C48.8984 37.2172 48.6445 37.1429 48.3281 37.1429H46.7383V38.9594H48.3008Z" fill="white"/>
<path d="M51.0938 33.4711H52.7266L54.2773 36.0883L55.8203 33.4711H57.4453L54.9844 37.5531V40.0961H53.5234V37.514L51.0938 33.4711Z" fill="white"/>
<path d="M98.4414 38.4554C98.5196 38.6117 98.625 38.7367 98.7617 38.8344C98.8946 38.9281 99.0469 38.9984 99.2266 39.0453C99.4063 39.0922 99.5899 39.1156 99.7813 39.1156C99.9102 39.1156 100.051 39.1039 100.199 39.0844C100.348 39.0609 100.484 39.0219 100.617 38.9594C100.746 38.8969 100.852 38.8109 100.941 38.7015C101.023 38.5961 101.07 38.4554 101.07 38.2914C101.07 38.1117 101.012 37.9672 100.898 37.8539C100.785 37.7445 100.633 37.6508 100.449 37.5765C100.262 37.5023 100.051 37.4359 99.8203 37.3812C99.5821 37.3265 99.3477 37.264 99.1055 37.1976C98.8594 37.1351 98.6172 37.057 98.3828 36.9672C98.1485 36.8812 97.9375 36.764 97.7539 36.6195C97.5664 36.4789 97.418 36.2992 97.3047 36.0883C97.1914 35.8734 97.1328 35.6156 97.1328 35.3148C97.1328 34.9711 97.2071 34.6781 97.3516 34.4281C97.4961 34.1781 97.6836 33.9672 97.918 33.7992C98.1524 33.6351 98.4219 33.5101 98.7188 33.4281C99.0117 33.35 99.3086 33.3109 99.6055 33.3109C99.9531 33.3109 100.285 33.35 100.602 33.4242C100.922 33.5023 101.203 33.6273 101.449 33.8031C101.699 33.975 101.895 34.1976 102.039 34.4633C102.184 34.7367 102.258 35.0609 102.258 35.4437H100.844C100.832 35.2445 100.789 35.0804 100.719 34.9515C100.648 34.8226 100.555 34.7211 100.438 34.6469C100.32 34.5726 100.188 34.5179 100.035 34.4906C99.8867 34.4594 99.7188 34.4437 99.543 34.4437C99.4258 34.4437 99.3086 34.4554 99.1914 34.4789C99.0742 34.5062 98.9688 34.5492 98.875 34.6078C98.7774 34.6703 98.6992 34.7484 98.6367 34.8422C98.5781 34.9359 98.5469 35.0531 98.5469 35.1937C98.5469 35.3226 98.5703 35.4281 98.6172 35.5101C98.668 35.5883 98.7656 35.6664 98.9102 35.7328C99.0586 35.7992 99.2578 35.8695 99.5117 35.9359C99.7696 36.0023 100.105 36.0922 100.52 36.1976C100.641 36.2211 100.813 36.2679 101.031 36.3304C101.25 36.3969 101.469 36.4984 101.684 36.6429C101.902 36.7836 102.086 36.975 102.246 37.2133C102.402 37.4515 102.48 37.7562 102.48 38.1273C102.48 38.4281 102.422 38.7094 102.305 38.9711C102.188 39.2289 102.012 39.4554 101.781 39.6429C101.551 39.8304 101.262 39.9789 100.918 40.0844C100.574 40.1898 100.18 40.2406 99.7266 40.2406C99.3633 40.2406 99.0078 40.1976 98.6641 40.1078C98.3203 40.0179 98.0196 39.8773 97.7578 39.682C97.4922 39.4906 97.2852 39.2445 97.1289 38.9476C96.9766 38.6508 96.9024 38.2992 96.9063 37.8929H98.3203C98.3203 38.1156 98.3594 38.3031 98.4414 38.4554Z" fill="white"/>
<path d="M106.645 33.4711L109.121 40.0961H107.609L107.109 38.6195H104.633L104.113 40.0961H102.648L105.152 33.4711H106.645ZM106.73 37.5336L105.895 35.1039H105.875L105.016 37.5336H106.73Z" fill="white"/>
<path d="M72.5195 33.4711L75.2852 37.9164H75.3008V33.4711H76.668V40.0961H75.2109L72.4531 35.6625H72.4336V40.0961H71.0703V33.4711H72.5195Z" fill="white"/>
<path d="M82.1953 35.2367C82.1094 35.0961 82 34.975 81.8711 34.8695C81.7422 34.764 81.5937 34.682 81.4297 34.6234C81.2656 34.5648 81.0937 34.5375 80.9141 34.5375C80.5859 34.5375 80.3086 34.6 80.0781 34.725C79.8516 34.8539 79.6641 35.0219 79.5234 35.2367C79.3828 35.4476 79.2773 35.6898 79.2109 35.9633C79.1484 36.2367 79.1133 36.5179 79.1133 36.807C79.1133 37.0844 79.1484 37.3578 79.2109 37.6195C79.2773 37.8812 79.3828 38.1195 79.5234 38.3265C79.6641 38.5375 79.8516 38.7054 80.0781 38.8344C80.3086 38.9594 80.5859 39.0219 80.9141 39.0219C81.3594 39.0219 81.707 38.889 81.957 38.6156C82.2109 38.3422 82.3633 37.9828 82.418 37.5375H83.8281C83.793 37.9515 83.6953 38.3265 83.5391 38.6625C83.3867 38.9945 83.1797 39.2797 82.9297 39.514C82.6758 39.7523 82.3789 39.932 82.0391 40.057C81.6992 40.1781 81.3242 40.2406 80.9141 40.2406C80.4062 40.2406 79.9531 40.1547 79.5469 39.975C79.1406 39.8031 78.8008 39.557 78.5195 39.2484C78.2422 38.9398 78.0273 38.5765 77.8789 38.1586C77.7305 37.7406 77.6562 37.2914 77.6562 36.807C77.6562 36.3109 77.7305 35.8539 77.8789 35.4281C78.0273 35.0062 78.2422 34.6351 78.5195 34.3187C78.8008 34.0062 79.1406 33.7562 79.5469 33.5765C79.9531 33.3969 80.4062 33.3109 80.9141 33.3109C81.2812 33.3109 81.625 33.3617 81.9492 33.4672C82.2734 33.5726 82.5664 33.725 82.8203 33.9281C83.0781 34.1273 83.2891 34.3773 83.457 34.6742C83.625 34.9711 83.7305 35.3109 83.7734 35.6937H82.3633C82.3359 35.5297 82.2812 35.3734 82.1953 35.2367Z" fill="white"/>
<path d="M114.578 15.7055C114.586 21.5492 109.848 26.2914 104.004 26.2992C98.1563 26.2992 93.4141 21.5687 93.4102 15.7211C93.4102 15.7172 93.4102 15.7094 93.4102 15.7055C93.4063 9.8617 98.1406 5.11952 103.988 5.11561C109.832 5.1078 114.574 9.84608 114.578 15.6898C114.578 15.6937 114.578 15.7015 114.578 15.7055Z" fill="white"/>
<path d="M103.918 4.11169C100.707 4.11169 97.9883 5.23279 95.7617 7.47107C93.4805 9.79138 92.3359 12.5375 92.3359 15.7054C92.3359 18.8734 93.4805 21.6 95.7617 23.8812C98.0469 26.1625 100.766 27.2992 103.918 27.2992C107.113 27.2992 109.879 26.1508 112.219 23.85C114.426 21.6664 115.531 18.9515 115.531 15.7054C115.531 12.4594 114.406 9.71326 112.164 7.47107C109.918 5.23279 107.172 4.11169 103.918 4.11169ZM103.949 6.19763C106.578 6.19763 108.812 7.12341 110.652 8.98279C112.512 10.8148 113.438 13.057 113.438 15.7054C113.438 18.3734 112.531 20.5844 110.711 22.3461C108.797 24.2367 106.539 25.1859 103.949 25.1859C101.355 25.1859 99.1211 24.2484 97.2422 22.3734C95.3672 20.4984 94.4258 18.2758 94.4258 15.7054C94.4258 13.1351 95.375 10.8929 97.2734 8.98279C99.0898 7.12341 101.316 6.19763 103.949 6.19763Z" fill="black"/>
<path d="M98.7773 14.0687C99.2422 11.1508 101.293 9.59216 103.871 9.59216C107.57 9.59216 109.828 12.2797 109.828 15.8617C109.828 19.3539 107.426 22.0687 103.812 22.0687C101.324 22.0687 99.0977 20.5414 98.6914 17.5336H101.613C101.699 19.0961 102.711 19.6429 104.16 19.6429C105.805 19.6429 106.879 18.1117 106.879 15.7718C106.879 13.3187 105.953 12.0179 104.215 12.0179C102.945 12.0179 101.844 12.4828 101.613 14.0687L102.461 14.0648L100.164 16.3617L97.8633 14.0648L98.7773 14.0687Z" fill="black"/>
<path d="M88.6289 15.7054C88.6328 21.6625 83.8086 26.4945 77.8516 26.4984C71.8945 26.5023 67.0586 21.6781 67.0547 15.7211C67.0547 15.7172 67.0547 15.7094 67.0547 15.7054C67.0508 9.74842 71.8789 4.91638 77.8359 4.91248C83.793 4.90857 88.625 9.73279 88.6289 15.6898C88.6289 15.6937 88.6289 15.7015 88.6289 15.7054Z" fill="white"/>
<path d="M77.8281 4.11169C81.0781 4.11169 83.8242 5.23279 86.0703 7.47107C88.3164 9.71326 89.4375 12.4594 89.4375 15.7054C89.4375 18.9515 88.3359 21.6664 86.1289 23.85C83.7891 26.1508 81.0195 27.2992 77.8281 27.2992C74.6719 27.2992 71.9531 26.1625 69.6719 23.8812C67.3867 21.6 66.2461 18.8734 66.2461 15.7054C66.2461 12.5375 67.3867 9.79138 69.6719 7.47107C71.8984 5.23279 74.6133 4.11169 77.8281 4.11169ZM68.8555 12.5922C68.5078 13.5687 68.3359 14.6078 68.3359 15.7054C68.3359 18.2758 69.2734 20.4984 71.1523 22.3734C73.0273 24.2484 75.2617 25.1859 77.8555 25.1859C80.4492 25.1859 82.7031 24.2367 84.6211 22.3422C85.2617 21.725 85.7891 21.0492 86.2031 20.3148L81.832 18.3695C81.5352 19.8383 80.2266 20.8344 78.6406 20.9515V22.7367H77.3086V20.9515C76.0078 20.9359 74.75 20.4008 73.7891 19.5609L75.3867 17.9515C76.1562 18.6742 76.9258 18.9984 77.9766 18.9984C78.6562 18.9984 79.4102 18.7328 79.4102 17.8461C79.4102 17.5336 79.2891 17.3148 79.0977 17.1508L77.9922 16.6586L76.6133 16.0453C75.9336 15.7406 75.3555 15.4867 74.7773 15.2289L68.8555 12.5922ZM77.8555 6.19763C75.2227 6.19763 73 7.12341 71.1797 8.98279C70.6836 9.47888 70.2539 10.0023 69.8906 10.5453L74.3203 12.5219C74.7227 11.2914 75.8906 10.5453 77.3086 10.4633V8.67419H78.6406V10.4633C79.5586 10.5062 80.5625 10.7562 81.5547 11.5258L80.0312 13.0922C79.4688 12.6937 78.7578 12.4125 78.0469 12.4125C77.4727 12.4125 76.6602 12.5883 76.6602 13.3109C76.6602 13.4242 76.6953 13.5219 76.7617 13.6078L78.2461 14.2679L79.25 14.7133C79.8906 14.9984 80.5039 15.2719 81.1133 15.5414L87.0547 18.1898C87.25 17.4086 87.3477 16.5804 87.3477 15.7054C87.3477 13.057 86.418 10.8148 84.5625 8.98279C82.7227 7.12341 80.4883 6.19763 77.8555 6.19763Z" fill="black"/>
</g>
<defs>
<clipPath id="clip0_47_53092">
<rect width="120" height="42" fill="white" transform="translate(0 0.724976)"/>
</clipPath>
</defs>
</svg>
