<svg width="500" height="373" viewBox="0 0 500 373" fill="none" xmlns="http://www.w3.org/2000/svg">
<path d="M500 327.642H0V327.892H500V327.642Z" fill="#EBEBEB"/>
<path d="M449.901 343.737H416.779V343.987H449.901V343.737Z" fill="#EBEBEB"/>
<path d="M331.22 346.452H322.527V346.702H331.22V346.452Z" fill="#EBEBEB"/>
<path d="M415.778 334.452H396.586V334.702H415.778V334.452Z" fill="#EBEBEB"/>
<path d="M95.652 336.132H52.459V336.382H95.652V336.132Z" fill="#EBEBEB"/>
<path d="M110.889 336.132H104.556V336.382H110.889V336.132Z" fill="#EBEBEB"/>
<path d="M225.147 340.354H131.471V340.604H225.147V340.354Z" fill="#EBEBEB"/>
<path d="M237.014 283.043H43.915C40.768 283.043 38.207 280.483 38.207 277.336V5.9035C38.207 2.7565 40.768 0.195496 43.915 0.195496H237.014C240.16 0.195496 242.721 2.7565 242.721 5.9035V277.336C242.721 280.483 240.16 283.043 237.014 283.043ZM43.915 0.446495C40.905 0.446495 38.457 2.8945 38.457 5.9045V277.336C38.457 280.346 40.905 282.794 43.915 282.794H237.014C240.023 282.794 242.471 280.346 242.471 277.336V5.9035C242.471 2.8945 240.023 0.445496 237.014 0.445496L43.915 0.446495Z" fill="#EBEBEB"/>
<path d="M453.31 283.043H260.212C257.065 283.043 254.505 280.483 254.505 277.336V5.9035C254.505 2.7565 257.066 0.195496 260.212 0.195496H453.31C456.458 0.195496 459.018 2.7565 459.018 5.9035V277.336C459.019 280.483 456.458 283.043 453.31 283.043ZM260.212 0.446495C257.203 0.446495 254.755 2.8945 254.755 5.9045V277.336C254.755 280.346 257.203 282.794 260.212 282.794H453.31C456.32 282.794 458.768 280.346 458.768 277.336V5.9035C458.768 2.8945 456.32 0.445496 453.31 0.445496L260.212 0.446495Z" fill="#EBEBEB"/>
<path d="M151.427 182.424H83.6328V195.38H151.427V182.424Z" fill="#E0E0E0"/>
<path d="M140.684 185.089H136.786V193.027H140.684V185.089Z" fill="#FAFAFA"/>
<path d="M147.35 185.089H143.452V193.027H147.35V185.089Z" fill="#EBEBEB"/>
<path d="M92.6907 192.971C94.9529 192.971 96.7867 191.137 96.7867 188.874C96.7867 186.612 94.9529 184.779 92.6907 184.779C90.4286 184.779 88.5947 186.612 88.5947 188.874C88.5947 191.137 90.4286 192.971 92.6907 192.971Z" fill="#F0F0F0"/>
<path d="M91.7118 188.874C91.7118 189.16 91.4798 189.393 91.1938 189.393C90.9078 189.393 90.6758 189.16 90.6758 188.874C90.6758 188.588 90.9078 188.357 91.1938 188.357C91.4798 188.357 91.7118 188.588 91.7118 188.874Z" fill="#E0E0E0"/>
<path d="M94.7059 188.874C94.7059 189.16 94.4739 189.393 94.1879 189.393C93.9019 189.393 93.6699 189.16 93.6699 188.874C93.6699 188.588 93.9019 188.357 94.1879 188.357C94.4739 188.357 94.7059 188.588 94.7059 188.874Z" fill="#E0E0E0"/>
<path d="M104.442 192.971C106.704 192.971 108.538 191.137 108.538 188.874C108.538 186.612 106.704 184.779 104.442 184.779C102.18 184.779 100.346 186.612 100.346 188.874C100.346 191.137 102.18 192.971 104.442 192.971Z" fill="#F0F0F0"/>
<path d="M103.463 188.874C103.463 189.16 103.231 189.393 102.945 189.393C102.659 189.393 102.427 189.16 102.427 188.874C102.427 188.588 102.659 188.357 102.945 188.357C103.231 188.357 103.463 188.588 103.463 188.874Z" fill="#E0E0E0"/>
<path d="M106.457 188.874C106.457 189.16 106.225 189.393 105.939 189.393C105.653 189.393 105.421 189.16 105.421 188.874C105.421 188.588 105.653 188.357 105.939 188.357C106.225 188.357 106.457 188.588 106.457 188.874Z" fill="#E0E0E0"/>
<path d="M116.786 192.971C119.048 192.971 120.882 191.137 120.882 188.874C120.882 186.612 119.048 184.779 116.786 184.779C114.524 184.779 112.69 186.612 112.69 188.874C112.69 191.137 114.524 192.971 116.786 192.971Z" fill="#F0F0F0"/>
<path d="M115.807 188.874C115.807 189.16 115.575 189.393 115.289 189.393C115.003 189.393 114.771 189.16 114.771 188.874C114.771 188.588 115.003 188.357 115.289 188.357C115.575 188.357 115.807 188.588 115.807 188.874Z" fill="#E0E0E0"/>
<path d="M118.801 188.874C118.801 189.16 118.569 189.393 118.283 189.393C117.997 189.393 117.765 189.16 117.765 188.874C117.765 188.588 117.997 188.357 118.283 188.357C118.57 188.357 118.801 188.588 118.801 188.874Z" fill="#E0E0E0"/>
<path d="M404.219 43.9155H225.314V207.504H404.219V43.9155Z" fill="#E6E6E6"/>
<path d="M401.414 50.3945H231.014V201.359H401.414V50.3945Z" fill="#F0F0F0"/>
<path d="M286.524 50.3945L255.817 201.361H240.098L270.734 50.3945H286.524Z" fill="#FAFAFA"/>
<path d="M299.534 50.3945L268.834 201.361H263.044L293.744 50.3945H299.534Z" fill="#FAFAFA"/>
<path d="M368.414 90.1465L345.798 201.36H340.008L368.414 61.6755V90.1465Z" fill="#FAFAFA"/>
<path d="M350.779 50.3945H366.361L335.894 201.361H320.104L350.779 50.3945Z" fill="#FAFAFA"/>
<path d="M316.766 43.9155H312.766V207.504H316.766V43.9155Z" fill="#E6E6E6"/>
<path d="M377.074 226.107L377.074 36.9281H372.705L372.705 226.107H377.074Z" fill="#E0E0E0"/>
<path d="M369.528 226.107L369.528 36.9275H365.159L365.159 226.107H369.528Z" fill="#E0E0E0"/>
<path d="M361.981 226.107L361.981 36.9279H357.612L357.612 226.107H361.981Z" fill="#E0E0E0"/>
<path d="M354.435 226.106L354.435 36.9273H350.066L350.066 226.106H354.435Z" fill="#E0E0E0"/>
<path d="M346.889 226.107L346.889 36.9277H342.52L342.52 226.107H346.889Z" fill="#E0E0E0"/>
<path d="M384.62 226.107L384.62 36.9278H380.251L380.251 226.107H384.62Z" fill="#E0E0E0"/>
<path d="M389.166 226.106L389.166 36.9274H384.797L384.797 226.106H389.166Z" fill="#EBEBEB"/>
<path d="M393.712 226.107L393.712 36.928H389.343L389.343 226.107H393.712Z" fill="#E0E0E0"/>
<path d="M398.471 226.107L398.471 36.9278H394.102L394.102 226.107H398.471Z" fill="#EBEBEB"/>
<path d="M412.317 226.107L412.317 36.928H407.948L407.948 226.107H412.317Z" fill="#E0E0E0"/>
<path d="M409.948 226.107L409.948 36.928H405.579L405.579 226.107H409.948Z" fill="#EBEBEB"/>
<path d="M407.578 226.107L407.578 36.928H403.209L403.209 226.107H407.578Z" fill="#E0E0E0"/>
<path d="M405.21 226.107L405.21 36.9279H400.841L400.841 226.107H405.21Z" fill="#EBEBEB"/>
<path d="M402.841 226.107L402.841 36.9279H398.472L398.472 226.107H402.841Z" fill="#E0E0E0"/>
<path d="M250 372.805C357.082 372.805 443.889 367.735 443.889 361.482C443.889 355.228 357.082 350.159 250 350.159C142.918 350.159 56.1108 355.228 56.1108 361.482C56.1108 367.735 142.918 372.805 250 372.805Z" fill="#F5F5F5"/>
<path d="M399.193 211.112V233.611L406.281 229.873C408.666 228.615 410.402 225.008 410.705 220.679L410.782 219.581C411.097 215.08 409.092 211.112 406.502 211.112H399.193ZM407.099 227.351L400.779 230.684V214.041H406.589C408.29 214.041 409.607 216.647 409.4 219.604L409.157 223.074C409.016 225.087 408.209 226.765 407.099 227.351Z" fill="#263238"/>
<path opacity="0.4" d="M399.193 211.112V233.611L406.281 229.873C408.666 228.615 410.402 225.008 410.705 220.679L410.782 219.581C411.097 215.08 409.092 211.112 406.502 211.112H399.193ZM407.099 227.351L400.779 230.684V214.041H406.589C408.29 214.041 409.607 216.647 409.4 219.604L409.157 223.074C409.016 225.087 408.209 226.765 407.099 227.351Z" fill="white"/>
<path d="M408.037 241.051H384.509L387.68 209.023L403.699 208.971L408.037 241.051Z" fill="#263238"/>
<path opacity="0.6" d="M408.037 241.051H384.509L387.68 209.023L403.699 208.971L408.037 241.051Z" fill="white"/>
<path d="M422.388 243.929H351.302V341.309H422.388V243.929Z" fill="#263238"/>
<path opacity="0.4" d="M422.388 243.929H351.302V341.309H422.388V243.929Z" fill="white"/>
<path d="M432.81 254.818H354.395C352.686 254.818 351.301 253.433 351.301 251.724V250.778C351.301 249.07 352.686 247.684 354.395 247.684H432.81C434.519 247.684 435.904 249.069 435.904 250.778V251.724C435.904 253.433 434.519 254.818 432.81 254.818Z" fill="#263238"/>
<path opacity="0.7" d="M432.81 254.818H354.395C352.686 254.818 351.301 253.433 351.301 251.724V250.778C351.301 249.07 352.686 247.684 354.395 247.684H432.81C434.519 247.684 435.904 249.069 435.904 250.778V251.724C435.904 253.433 434.519 254.818 432.81 254.818Z" fill="white"/>
<path d="M432.574 265.69H404.21C402.371 265.69 400.88 264.199 400.88 262.36V252.616C400.88 250.777 402.371 249.286 404.21 249.286H432.575C434.414 249.286 435.905 250.777 435.905 252.616V262.36C435.904 264.2 434.413 265.69 432.574 265.69Z" fill="#263238"/>
<path opacity="0.5" d="M432.574 265.69H404.21C402.371 265.69 400.88 264.199 400.88 262.36V252.616C400.88 250.777 402.371 249.286 404.21 249.286H432.575C434.414 249.286 435.905 250.777 435.905 252.616V262.36C435.904 264.2 434.413 265.69 432.574 265.69Z" fill="white"/>
<path d="M419.509 246.808H354.18C352.59 246.808 351.301 245.519 351.301 243.929C351.301 242.339 352.59 241.051 354.18 241.051H419.509C421.099 241.051 422.387 242.34 422.387 243.929C422.388 245.519 421.099 246.808 419.509 246.808Z" fill="#263238"/>
<path opacity="0.5" d="M419.509 246.808H354.18C352.59 246.808 351.301 245.519 351.301 243.929C351.301 242.339 352.59 241.051 354.18 241.051H419.509C421.099 241.051 422.387 242.34 422.387 243.929C422.388 245.519 421.099 246.808 419.509 246.808Z" fill="white"/>
<path d="M435.904 311.774H410.763V341.31H435.904V311.774Z" fill="#263238"/>
<path opacity="0.6" d="M435.904 311.774H410.763V341.31H435.904V311.774Z" fill="white"/>
<path d="M377.945 241.051H370.27L368.267 223.252H379.435L377.945 241.051Z" fill="#263238"/>
<path opacity="0.6" d="M377.945 241.051H370.27L368.267 223.252H379.435L377.945 241.051Z" fill="white"/>
<path d="M410.373 286.898H351.302V341.281H410.373V286.898Z" fill="#263238"/>
<path opacity="0.7" d="M410.373 286.898H351.302V341.281H410.373V286.898Z" fill="white"/>
<path d="M410.373 270.696H351.302V285.992H410.373V270.696Z" fill="#263238"/>
<path opacity="0.6" d="M410.373 270.696H351.302V285.992H410.373V270.696Z" fill="white"/>
<path d="M359.145 304.03H355.71V323.832H359.145V304.03Z" fill="#263238"/>
<path opacity="0.4" d="M359.145 304.03H355.71V323.832H359.145V304.03Z" fill="white"/>
<path d="M390.182 272.547H371.493V276.552H390.182V272.547Z" fill="#263238"/>
<path opacity="0.4" d="M390.182 272.547H371.493V276.552H390.182V272.547Z" fill="white"/>
<path d="M423.334 252.301H413.451V254.818H423.334V252.301Z" fill="#263238"/>
<path opacity="0.4" d="M423.334 252.301H413.451V254.818H423.334V252.301Z" fill="white"/>
<path d="M392.101 209.009L388.18 215.312L386.177 208.971L392.101 209.009Z" fill="#263238"/>
<path opacity="0.4" d="M392.101 209.009L388.18 215.312L386.177 208.971L392.101 209.009Z" fill="white"/>
<path d="M403.643 208.971H387.445L387.455 208.89C387.813 205.888 390.303 203.631 393.257 203.631H397.832C400.817 203.631 403.322 205.933 403.643 208.971Z" fill="#263238"/>
<path opacity="0.5" d="M403.643 208.971H387.445L387.455 208.89C387.813 205.888 390.303 203.631 393.257 203.631H397.832C400.817 203.631 403.322 205.933 403.643 208.971Z" fill="white"/>
<path d="M349.849 354.49C349.849 357.333 352.153 359.637 354.996 359.637C357.839 359.637 360.143 357.333 360.143 354.49C360.143 351.647 357.839 349.343 354.996 349.343C352.154 349.343 349.849 351.647 349.849 354.49Z" fill="#263238"/>
<path opacity="0.3" d="M352.956 354.49C352.956 355.617 353.87 356.53 354.996 356.53C356.123 356.53 357.036 355.616 357.036 354.49C357.036 353.364 356.123 352.45 354.996 352.45C353.87 352.45 352.956 353.363 352.956 354.49Z" fill="black"/>
<path d="M354.996 354.49L349.849 352.557C349.849 352.557 350.521 349.283 354.214 348.737C357.907 348.191 359.586 351.129 359.586 351.129L354.996 354.49Z" fill="#263238"/>
<path opacity="0.3" d="M354.996 354.49L349.849 352.557C349.849 352.557 350.521 349.283 354.214 348.737C357.907 348.191 359.586 351.129 359.586 351.129L354.996 354.49Z" fill="white"/>
<path d="M358.69 341.281H351.302V348.669H358.69V341.281Z" fill="#263238"/>
<path opacity="0.3" d="M358.69 341.281H351.302V348.669H358.69V341.281Z" fill="white"/>
<path d="M401.082 354.49C401.082 357.333 403.386 359.637 406.229 359.637C409.072 359.637 411.376 357.333 411.376 354.49C411.376 351.647 409.072 349.343 406.229 349.343C403.387 349.343 401.082 351.647 401.082 354.49Z" fill="#263238"/>
<path opacity="0.3" d="M404.189 354.49C404.189 355.617 405.102 356.53 406.229 356.53C407.356 356.53 408.269 355.616 408.269 354.49C408.269 353.364 407.355 352.45 406.229 352.45C405.103 352.45 404.189 353.363 404.189 354.49Z" fill="black"/>
<path d="M406.229 354.49L401.082 352.557C401.082 352.557 401.754 349.283 405.447 348.737C409.141 348.191 410.819 351.129 410.819 351.129L406.229 354.49Z" fill="#263238"/>
<path opacity="0.3" d="M406.229 354.49L401.082 352.557C401.082 352.557 401.754 349.283 405.447 348.737C409.141 348.191 410.819 351.129 410.819 351.129L406.229 354.49Z" fill="white"/>
<path d="M410.374 341.337H403.041V348.67H410.374V341.337Z" fill="#263238"/>
<path opacity="0.3" d="M410.374 341.337H403.041V348.67H410.374V341.337Z" fill="white"/>
<path d="M427.341 354.49C427.341 357.333 429.645 359.637 432.488 359.637C435.331 359.637 437.635 357.333 437.635 354.49C437.635 351.647 435.331 349.343 432.488 349.343C429.645 349.343 427.341 351.647 427.341 354.49Z" fill="#263238"/>
<path opacity="0.3" d="M430.448 354.49C430.448 355.617 431.361 356.53 432.488 356.53C433.615 356.53 434.528 355.616 434.528 354.49C434.528 353.364 433.614 352.45 432.488 352.45C431.362 352.45 430.448 353.363 430.448 354.49Z" fill="black"/>
<path d="M432.488 354.49L427.341 352.557C427.341 352.557 428.012 349.283 431.706 348.737C435.4 348.191 437.078 351.129 437.078 351.129L432.488 354.49Z" fill="#263238"/>
<path opacity="0.3" d="M432.488 354.49L427.341 352.557C427.341 352.557 428.012 349.283 431.706 348.737C435.4 348.191 437.078 351.129 437.078 351.129L432.488 354.49Z" fill="white"/>
<path d="M435.797 341.448H428.576V348.669H435.797V341.448Z" fill="#263238"/>
<path opacity="0.3" d="M435.797 341.448H428.576V348.669H435.797V341.448Z" fill="white"/>
<path d="M207.407 206.051H181.232C177.939 206.051 175.269 203.382 175.269 200.089V198.552H213.369V200.089C213.37 203.382 210.7 206.051 207.407 206.051Z" fill="#407BFF"/>
<path opacity="0.3" d="M207.407 206.051H181.232C177.939 206.051 175.269 203.382 175.269 200.089V198.552H213.369V200.089C213.37 203.382 210.7 206.051 207.407 206.051Z" fill="white"/>
<path d="M201.407 206.051H187.232V344.801H201.407V206.051Z" fill="#263238"/>
<path opacity="0.5" d="M201.407 206.051H187.232V344.801H201.407V206.051Z" fill="white"/>
<path d="M228.107 344.802H160.532V350.876H228.107V344.802Z" fill="#263238"/>
<path opacity="0.3" d="M228.107 344.802H160.532V350.876H228.107V344.802Z" fill="white"/>
<path d="M228.107 361.602C231.069 361.602 233.47 359.201 233.47 356.239C233.47 353.278 231.069 350.876 228.107 350.876C225.145 350.876 222.744 353.278 222.744 356.239C222.744 359.201 225.145 361.602 228.107 361.602Z" fill="#263238"/>
<path opacity="0.3" d="M228.107 358.901C229.577 358.901 230.769 357.71 230.769 356.239C230.769 354.769 229.577 353.577 228.107 353.577C226.637 353.577 225.445 354.769 225.445 356.239C225.445 357.71 226.637 358.901 228.107 358.901Z" fill="black"/>
<path d="M222.745 353.558L225.52 356.239H228.107V350.876H222.745V353.558Z" fill="#263238"/>
<path opacity="0.2" d="M222.745 353.558L225.52 356.239H228.107V350.876H222.745V353.558Z" fill="white"/>
<path d="M160.532 361.602C163.494 361.602 165.895 359.201 165.895 356.239C165.895 353.278 163.494 350.876 160.532 350.876C157.57 350.876 155.169 353.278 155.169 356.239C155.169 359.201 157.57 361.602 160.532 361.602Z" fill="#263238"/>
<path opacity="0.3" d="M160.532 358.901C162.002 358.901 163.194 357.71 163.194 356.239C163.194 354.769 162.002 353.577 160.532 353.577C159.062 353.577 157.87 354.769 157.87 356.239C157.87 357.71 159.062 358.901 160.532 358.901Z" fill="black"/>
<path d="M165.895 353.558L163.12 356.239H160.532V350.876H165.895V353.558Z" fill="#263238"/>
<path opacity="0.2" d="M165.895 353.558L163.12 356.239H160.532V350.876H165.895V353.558Z" fill="white"/>
<path d="M176.395 198.551H212.245C216.139 198.551 219.295 195.395 219.295 191.501V174.278C219.295 170.384 216.139 167.228 212.245 167.228H176.395C172.501 167.228 169.345 170.384 169.345 174.278V191.501C169.345 195.395 172.501 198.551 176.395 198.551Z" fill="#407BFF"/>
<path opacity="0.5" d="M176.395 198.551H212.245C216.139 198.551 219.295 195.395 219.295 191.501V174.278C219.295 170.384 216.139 167.228 212.245 167.228H176.395C172.501 167.228 169.345 170.384 169.345 174.278V191.501C169.345 195.395 172.501 198.551 176.395 198.551Z" fill="white"/>
<path d="M204.445 170.143H175.345V190.959H204.445V170.143Z" fill="#E0E0E0"/>
<path d="M215.92 195.251C217.37 195.251 218.545 194.076 218.545 192.626C218.545 191.177 217.37 190.001 215.92 190.001C214.47 190.001 213.295 191.177 213.295 192.626C213.295 194.076 214.47 195.251 215.92 195.251Z" fill="#263238"/>
<path d="M216.37 186.551C217.571 186.551 218.545 186.149 218.545 185.651C218.545 185.154 217.571 184.751 216.37 184.751C215.169 184.751 214.195 185.154 214.195 185.651C214.195 186.149 215.169 186.551 216.37 186.551Z" fill="#263238"/>
<path d="M216.37 183.926C217.571 183.926 218.545 183.524 218.545 183.026C218.545 182.529 217.571 182.126 216.37 182.126C215.169 182.126 214.195 182.529 214.195 183.026C214.195 183.524 215.169 183.926 216.37 183.926Z" fill="#263238"/>
<path d="M216.37 181.301C217.571 181.301 218.545 180.899 218.545 180.401C218.545 179.904 217.571 179.501 216.37 179.501C215.169 179.501 214.195 179.904 214.195 180.401C214.195 180.899 215.169 181.301 216.37 181.301Z" fill="#263238"/>
<path d="M216.37 178.676C217.571 178.676 218.545 178.274 218.545 177.776C218.545 177.279 217.571 176.876 216.37 176.876C215.169 176.876 214.195 177.279 214.195 177.776C214.195 178.274 215.169 178.676 216.37 178.676Z" fill="#263238"/>
<path d="M216.37 176.051C217.571 176.051 218.545 175.649 218.545 175.151C218.545 174.654 217.571 174.251 216.37 174.251C215.169 174.251 214.195 174.654 214.195 175.151C214.195 175.649 215.169 176.051 216.37 176.051Z" fill="#263238"/>
<path d="M216.37 173.426C217.571 173.426 218.545 173.024 218.545 172.526C218.545 172.029 217.571 171.626 216.37 171.626C215.169 171.626 214.195 172.029 214.195 172.526C214.195 173.024 215.169 173.426 216.37 173.426Z" fill="#263238"/>
<path d="M209.245 197.801C209.701 197.801 210.07 197.432 210.07 196.976C210.07 196.521 209.701 196.151 209.245 196.151C208.789 196.151 208.42 196.521 208.42 196.976C208.42 197.432 208.789 197.801 209.245 197.801Z" fill="#263238"/>
<path d="M205.645 197.801C206.1 197.801 206.47 197.432 206.47 196.976C206.47 196.521 206.1 196.151 205.645 196.151C205.189 196.151 204.82 196.521 204.82 196.976C204.82 197.432 205.189 197.801 205.645 197.801Z" fill="#263238"/>
<path d="M204.707 195.251H175.082C171.913 195.251 169.344 192.682 169.344 189.513V171.588C169.344 168.419 171.913 165.851 175.082 165.851H204.707C207.876 165.851 210.445 168.42 210.445 171.588V189.513C210.445 192.682 207.876 195.251 204.707 195.251Z" fill="#407BFF"/>
<path opacity="0.2" d="M204.707 195.251H175.082C171.913 195.251 169.344 192.682 169.344 189.513V171.588C169.344 168.419 171.913 165.851 175.082 165.851H204.707C207.876 165.851 210.445 168.42 210.445 171.588V189.513C210.445 192.682 207.876 195.251 204.707 195.251Z" fill="white"/>
<path d="M206.493 170.39H173.493V191.473H206.493V170.39Z" fill="#263238"/>
<path opacity="0.7" d="M206.493 170.39H173.493V191.473H206.493V170.39Z" fill="white"/>
<path d="M183.263 182.438C183.04 182.302 182.866 182.106 182.74 181.849C182.614 181.592 182.551 181.286 182.551 180.931C182.551 180.576 182.614 180.27 182.74 180.013C182.866 179.756 183.041 179.56 183.263 179.424C183.486 179.288 183.742 179.221 184.031 179.221C184.321 179.221 184.577 179.289 184.8 179.424C185.023 179.559 185.197 179.756 185.323 180.013C185.449 180.27 185.512 180.576 185.512 180.931C185.512 181.286 185.449 181.592 185.323 181.849C185.197 182.106 185.022 182.302 184.8 182.438C184.577 182.573 184.321 182.641 184.031 182.641C183.742 182.642 183.485 182.574 183.263 182.438ZM184.405 180.931C184.405 180.38 184.28 180.104 184.031 180.104C183.782 180.104 183.657 180.38 183.657 180.931C183.657 181.482 183.782 181.758 184.031 181.758C184.28 181.759 184.405 181.483 184.405 180.931Z" fill="#407BFF"/>
<path d="M186.496 182.438C186.273 182.302 186.099 182.106 185.973 181.849C185.847 181.592 185.784 181.286 185.784 180.931C185.784 180.576 185.847 180.27 185.973 180.013C186.099 179.756 186.274 179.56 186.496 179.424C186.719 179.288 186.975 179.221 187.265 179.221C187.555 179.221 187.811 179.289 188.034 179.424C188.257 179.559 188.431 179.756 188.557 180.013C188.683 180.27 188.746 180.576 188.746 180.931C188.746 181.286 188.683 181.592 188.557 181.849C188.431 182.106 188.256 182.302 188.034 182.438C187.811 182.573 187.555 182.641 187.265 182.641C186.975 182.642 186.719 182.574 186.496 182.438ZM187.638 180.931C187.638 180.38 187.514 180.104 187.264 180.104C187.015 180.104 186.89 180.38 186.89 180.931C186.89 181.482 187.014 181.758 187.264 181.758C187.514 181.759 187.638 181.483 187.638 180.931Z" fill="#407BFF"/>
<path d="M183.649 188.553C183.426 188.417 183.252 188.221 183.126 187.964C183 187.707 182.938 187.401 182.938 187.046C182.938 186.691 183 186.385 183.126 186.128C183.252 185.871 183.426 185.675 183.649 185.539C183.872 185.403 184.129 185.336 184.419 185.336C184.709 185.336 184.964 185.404 185.188 185.539C185.411 185.674 185.584 185.871 185.71 186.128C185.836 186.385 185.899 186.691 185.899 187.046C185.899 187.401 185.836 187.707 185.71 187.964C185.584 188.221 185.41 188.417 185.188 188.553C184.964 188.689 184.709 188.756 184.419 188.756C184.129 188.756 183.871 188.689 183.649 188.553ZM184.792 187.046C184.792 186.495 184.666 186.219 184.417 186.219C184.168 186.219 184.044 186.495 184.044 187.046C184.044 187.597 184.168 187.873 184.417 187.873C184.666 187.873 184.792 187.598 184.792 187.046Z" fill="#407BFF"/>
<path d="M186.882 188.553C186.659 188.417 186.485 188.221 186.359 187.964C186.233 187.707 186.17 187.401 186.17 187.046C186.17 186.691 186.233 186.385 186.359 186.128C186.485 185.871 186.66 185.675 186.882 185.539C187.105 185.403 187.361 185.336 187.65 185.336C187.94 185.336 188.196 185.404 188.419 185.539C188.642 185.674 188.816 185.871 188.942 186.128C189.068 186.385 189.131 186.691 189.131 187.046C189.131 187.401 189.068 187.707 188.942 187.964C188.816 188.221 188.641 188.417 188.419 188.553C188.196 188.689 187.94 188.756 187.65 188.756C187.361 188.756 187.105 188.689 186.882 188.553ZM188.024 187.046C188.024 186.495 187.899 186.219 187.65 186.219C187.401 186.219 187.276 186.495 187.276 187.046C187.276 187.597 187.4 187.873 187.65 187.873C187.9 187.873 188.024 187.598 188.024 187.046Z" fill="#407BFF"/>
<path d="M191.836 188.553C191.613 188.417 191.439 188.221 191.313 187.964C191.187 187.707 191.124 187.401 191.124 187.046C191.124 186.691 191.187 186.385 191.313 186.128C191.439 185.871 191.614 185.675 191.836 185.539C192.059 185.403 192.315 185.336 192.604 185.336C192.894 185.336 193.15 185.404 193.373 185.539C193.596 185.674 193.77 185.871 193.896 186.128C194.022 186.385 194.085 186.691 194.085 187.046C194.085 187.401 194.022 187.707 193.896 187.964C193.77 188.221 193.595 188.417 193.373 188.553C193.15 188.689 192.894 188.756 192.604 188.756C192.315 188.756 192.058 188.689 191.836 188.553ZM192.978 187.046C192.978 186.495 192.853 186.219 192.604 186.219C192.355 186.219 192.23 186.495 192.23 187.046C192.23 187.597 192.354 187.873 192.604 187.873C192.854 187.873 192.978 187.598 192.978 187.046Z" fill="#407BFF"/>
<path d="M195.068 188.553C194.845 188.417 194.671 188.221 194.545 187.964C194.419 187.707 194.356 187.401 194.356 187.046C194.356 186.691 194.419 186.385 194.545 186.128C194.671 185.871 194.846 185.675 195.068 185.539C195.291 185.403 195.547 185.336 195.836 185.336C196.126 185.336 196.382 185.404 196.605 185.539C196.828 185.674 197.002 185.871 197.128 186.128C197.254 186.385 197.317 186.691 197.317 187.046C197.317 187.401 197.254 187.707 197.128 187.964C197.002 188.221 196.827 188.417 196.605 188.553C196.382 188.689 196.126 188.756 195.836 188.756C195.547 188.756 195.291 188.689 195.068 188.553ZM196.21 187.046C196.21 186.495 196.086 186.219 195.836 186.219C195.586 186.219 195.462 186.495 195.462 187.046C195.462 187.597 195.586 187.873 195.836 187.873C196.086 187.873 196.21 187.598 196.21 187.046Z" fill="#407BFF"/>
<path d="M192.378 182.438C192.155 182.302 191.981 182.106 191.855 181.849C191.729 181.592 191.666 181.286 191.666 180.931C191.666 180.576 191.729 180.27 191.855 180.013C191.981 179.756 192.156 179.56 192.378 179.424C192.601 179.288 192.857 179.221 193.146 179.221C193.436 179.221 193.692 179.289 193.915 179.424C194.138 179.559 194.312 179.756 194.438 180.013C194.564 180.27 194.627 180.576 194.627 180.931C194.627 181.286 194.564 181.592 194.438 181.849C194.312 182.106 194.137 182.302 193.915 182.438C193.692 182.573 193.436 182.641 193.146 182.641C192.857 182.641 192.6 182.574 192.378 182.438ZM193.52 180.931C193.52 180.38 193.396 180.104 193.146 180.104C192.896 180.104 192.772 180.38 192.772 180.931C192.772 181.482 192.896 181.758 193.146 181.758C193.396 181.758 193.52 181.483 193.52 180.931Z" fill="#407BFF"/>
<path d="M195.61 182.438C195.387 182.302 195.213 182.106 195.087 181.849C194.961 181.592 194.898 181.286 194.898 180.931C194.898 180.576 194.961 180.27 195.087 180.013C195.213 179.756 195.388 179.56 195.61 179.424C195.833 179.288 196.089 179.221 196.378 179.221C196.668 179.221 196.924 179.289 197.147 179.424C197.37 179.559 197.544 179.756 197.67 180.013C197.796 180.27 197.859 180.576 197.859 180.931C197.859 181.286 197.796 181.592 197.67 181.849C197.544 182.106 197.369 182.302 197.147 182.438C196.924 182.573 196.668 182.641 196.378 182.641C196.089 182.641 195.833 182.574 195.61 182.438ZM196.752 180.931C196.752 180.38 196.628 180.104 196.378 180.104C196.129 180.104 196.004 180.38 196.004 180.931C196.004 181.482 196.128 181.758 196.378 181.758C196.628 181.758 196.752 181.483 196.752 180.931Z" fill="#407BFF"/>
<path d="M190.282 185.946H190.749L189.978 188.147H189.511L190.282 185.946Z" fill="#407BFF"/>
<path d="M192.701 174.521H174.622V174.755H192.701V174.521Z" fill="#407BFF"/>
<path d="M194.031 176.595V173.003H193.856V176.595V176.77H194.031H204.997V176.595H194.031Z" fill="#407BFF"/>
<path d="M197.32 161.651H184.72C183.477 161.651 182.47 160.644 182.47 159.401C182.47 158.158 183.477 157.151 184.72 157.151H197.32C198.563 157.151 199.57 158.158 199.57 159.401C199.57 160.644 198.563 161.651 197.32 161.651Z" fill="#407BFF"/>
<path opacity="0.1" d="M197.32 161.651H184.72C183.477 161.651 182.47 160.644 182.47 159.401C182.47 158.158 183.477 157.151 184.72 157.151H197.32C198.563 157.151 199.57 158.158 199.57 159.401C199.57 160.644 198.563 161.651 197.32 161.651Z" fill="white"/>
<path d="M182.47 158.201V165.851H180.67V160.001C180.67 159.007 181.476 158.201 182.47 158.201Z" fill="#263238"/>
<path opacity="0.3" d="M182.47 158.201V165.851H180.67V160.001C180.67 159.007 181.476 158.201 182.47 158.201Z" fill="white"/>
<path d="M199.57 158.201V165.851H201.37V160.001C201.37 159.007 200.564 158.201 199.57 158.201Z" fill="#263238"/>
<path opacity="0.3" d="M199.57 158.201V165.851H201.37V160.001C201.37 159.007 200.564 158.201 199.57 158.201Z" fill="white"/>
<path d="M194.389 268.182H91.9473V281.381H194.389V268.182Z" fill="#263238"/>
<path opacity="0.2" d="M194.389 268.182H91.9473V281.381H194.389V268.182Z" fill="white"/>
<path d="M80.5312 361.125C86.8361 361.125 91.9472 356.014 91.9472 349.709C91.9472 343.405 86.8361 338.293 80.5312 338.293C74.2264 338.293 69.1152 343.405 69.1152 349.709C69.1152 356.014 74.2264 361.125 80.5312 361.125Z" fill="#263238"/>
<path opacity="0.2" d="M85.8264 349.709C85.8264 352.634 83.4554 355.005 80.5304 355.005C77.6054 355.005 75.2344 352.634 75.2344 349.709C75.2344 346.784 77.6054 344.413 80.5304 344.413C83.4564 344.413 85.8264 346.784 85.8264 349.709Z" fill="black"/>
<path d="M331.025 278.872L80.9019 317.909L81.9971 324.927L332.12 285.89L331.025 278.872Z" fill="#263238"/>
<path opacity="0.3" d="M331.025 278.872L80.9019 317.909L81.9971 324.927L332.12 285.89L331.025 278.872Z" fill="white"/>
<path d="M80.915 285.915L331.038 324.952L332.133 317.934L82.0103 278.897L80.915 285.915Z" fill="#263238"/>
<path opacity="0.2" d="M80.915 285.915L331.038 324.952L332.133 317.934L82.0103 278.897L80.915 285.915Z" fill="white"/>
<path d="M168.632 244.732L86.0392 216.908C84.1572 216.274 82.1172 217.286 81.4832 219.168L76.6712 233.452C75.8482 235.896 77.1622 238.545 79.6062 239.368L161.898 268.071H331.286C333.285 268.071 334.906 266.45 334.906 264.451V247.645C334.906 246.037 333.602 244.733 331.994 244.733L168.632 244.732Z" fill="#263238"/>
<path d="M69.2739 281.381H63.8199C61.7009 281.381 59.9829 279.663 59.9829 277.544V225.571C59.9829 223.452 61.7009 221.734 63.8199 221.734H65.4319C67.3579 221.734 68.9859 223.162 69.2359 225.072L73.0789 254.4C73.1009 254.565 73.1119 254.732 73.1119 254.899V277.543C73.1109 279.663 71.3929 281.381 69.2739 281.381Z" fill="#407BFF"/>
<path opacity="0.5" d="M69.2739 281.381H63.8199C61.7009 281.381 59.9829 279.663 59.9829 277.544V225.571C59.9829 223.452 61.7009 221.734 63.8199 221.734H65.4319C67.3579 221.734 68.9859 223.162 69.2359 225.072L73.0789 254.4C73.1009 254.565 73.1119 254.732 73.1119 254.899V277.543C73.1109 279.663 71.3929 281.381 69.2739 281.381Z" fill="white"/>
<path d="M339.109 277.393H344.564C346.683 277.393 348.401 275.675 348.401 273.556V221.583C348.401 219.464 346.683 217.746 344.564 217.746H342.952C341.026 217.746 339.398 219.174 339.148 221.084L335.305 250.412C335.283 250.577 335.272 250.744 335.272 250.91V273.555C335.272 275.675 336.99 277.393 339.109 277.393Z" fill="#407BFF"/>
<path opacity="0.5" d="M339.109 277.393H344.564C346.683 277.393 348.401 275.675 348.401 273.556V221.583C348.401 219.464 346.683 217.746 344.564 217.746H342.952C341.026 217.746 339.398 219.174 339.148 221.084L335.305 250.412C335.283 250.577 335.272 250.744 335.272 250.91V273.555C335.272 275.675 336.99 277.393 339.109 277.393Z" fill="white"/>
<path d="M175.553 268.182H73.1108V281.381H175.553V268.182Z" fill="#407BFF"/>
<path opacity="0.4" d="M175.553 268.182H73.1108V281.381H175.553V268.182Z" fill="white"/>
<path d="M335.272 268.182H177.119V281.381H335.272V268.182Z" fill="#407BFF"/>
<path opacity="0.4" d="M335.272 268.182H177.119V281.381H335.272V268.182Z" fill="white"/>
<path d="M334.906 322.415H79.7061V335.751H334.906V322.415Z" fill="#407BFF"/>
<path opacity="0.4" d="M334.906 322.415H79.7061V335.751H334.906V322.415Z" fill="white"/>
<path d="M59.498 200.267L49.065 228.459C46.822 234.52 49.917 241.251 55.978 243.494L157.952 281.233C162.77 283.016 191.928 268.402 183.777 259.142C175.625 249.882 152.955 222.378 136.36 216.237L74.533 193.355C68.472 191.111 61.74 194.206 59.498 200.267ZM134.535 229.385C135.566 226.598 138.743 225.239 141.454 226.457C149.66 230.147 157.133 236.543 164.119 244.734C167.555 248.762 163.356 254.729 158.391 252.891L134.591 244.083C131.922 243.095 130.558 240.13 131.546 237.461L134.535 229.385ZM66.526 205.944C67.707 202.752 71.253 201.12 74.445 202.302L111.507 216.018C114.042 216.956 115.67 219.436 115.522 222.135L115.215 227.744C114.988 231.888 110.814 234.628 106.922 233.187L68.304 218.895C65.112 217.714 63.481 214.168 64.663 210.975L66.526 205.944Z" fill="#407BFF"/>
<path opacity="0.7" d="M59.498 200.267L49.065 228.459C46.822 234.52 49.917 241.251 55.978 243.494L157.952 281.233C162.77 283.016 191.928 268.402 183.777 259.142C175.625 249.882 152.955 222.378 136.36 216.237L74.533 193.355C68.472 191.111 61.74 194.206 59.498 200.267ZM134.535 229.385C135.566 226.598 138.743 225.239 141.454 226.457C149.66 230.147 157.133 236.543 164.119 244.734C167.555 248.762 163.356 254.729 158.391 252.891L134.591 244.083C131.922 243.095 130.558 240.13 131.546 237.461L134.535 229.385ZM66.526 205.944C67.707 202.752 71.253 201.12 74.445 202.302L111.507 216.018C114.042 216.956 115.67 219.436 115.522 222.135L115.215 227.744C114.988 231.888 110.814 234.628 106.922 233.187L68.304 218.895C65.112 217.714 63.481 214.168 64.663 210.975L66.526 205.944Z" fill="white"/>
<path d="M86.644 313.896H84.058C81.655 313.896 79.707 315.844 79.707 318.247V322.415H90.996V318.247C90.995 315.845 89.047 313.896 86.644 313.896Z" fill="#263238"/>
<path opacity="0.1" d="M86.644 313.896H84.058C81.655 313.896 79.707 315.844 79.707 318.247V322.415H90.996V318.247C90.995 315.845 89.047 313.896 86.644 313.896Z" fill="white"/>
<path d="M84.0581 289.9H86.6441C89.0471 289.9 90.9951 287.952 90.9951 285.549V281.381H79.7061V285.549C79.7061 287.952 81.6551 289.9 84.0581 289.9Z" fill="#263238"/>
<path opacity="0.1" d="M84.0581 289.9H86.6441C89.0471 289.9 90.9951 287.952 90.9951 285.549V281.381H79.7061V285.549C79.7061 287.952 81.6551 289.9 84.0581 289.9Z" fill="white"/>
<path d="M328.375 289.9H330.961C333.364 289.9 335.312 287.952 335.312 285.549V281.381H324.023V285.549C324.024 287.952 325.972 289.9 328.375 289.9Z" fill="#263238"/>
<path opacity="0.1" d="M328.375 289.9H330.961C333.364 289.9 335.312 287.952 335.312 285.549V281.381H324.023V285.549C324.024 287.952 325.972 289.9 328.375 289.9Z" fill="white"/>
<path d="M330.961 313.896H328.375C325.972 313.896 324.023 315.844 324.023 318.247V322.415H335.312V318.247C335.313 315.845 333.364 313.896 330.961 313.896Z" fill="#263238"/>
<path opacity="0.1" d="M330.961 313.896H328.375C325.972 313.896 324.023 315.844 324.023 318.247V322.415H335.312V318.247C335.313 315.845 333.364 313.896 330.961 313.896Z" fill="white"/>
<path d="M209.719 309.696C214.023 307.913 216.067 302.979 214.284 298.675C212.501 294.371 207.567 292.327 203.263 294.11C198.959 295.892 196.915 300.827 198.698 305.131C200.481 309.435 205.415 311.479 209.719 309.696Z" fill="#263238"/>
<path opacity="0.1" d="M209.719 309.696C214.023 307.913 216.067 302.979 214.284 298.675C212.501 294.371 207.567 292.327 203.263 294.11C198.959 295.892 196.915 300.827 198.698 305.131C200.481 309.435 205.415 311.479 209.719 309.696Z" fill="white"/>
<path d="M320.995 268.953H255.07C237.376 268.953 206.568 286.88 195.709 292.735C184.85 298.591 207.124 322.415 212.262 322.415H320.995C327.457 322.415 332.696 317.176 332.696 310.714V280.653C332.696 274.191 327.457 268.953 320.995 268.953ZM252.217 290.531C252.217 293.377 249.91 295.685 247.063 295.685H221.685C216.39 295.685 214.524 288.632 219.144 286.047C228.539 280.79 237.768 277.385 246.744 276.772C249.709 276.57 252.216 278.947 252.216 281.919L252.217 290.531ZM324.134 288.905C324.134 292.309 321.374 295.068 317.97 295.068H276.793C272.643 295.068 269.679 291.05 270.904 287.085L272.563 281.718C273.361 279.136 275.749 277.374 278.452 277.374H317.97C321.374 277.374 324.134 280.134 324.134 283.537V288.905Z" fill="#407BFF"/>
<path opacity="0.7" d="M320.995 268.953H255.07C237.376 268.953 206.568 286.88 195.709 292.735C184.85 298.591 207.124 322.415 212.262 322.415H320.995C327.457 322.415 332.696 317.176 332.696 310.714V280.653C332.696 274.191 327.457 268.953 320.995 268.953ZM252.217 290.531C252.217 293.377 249.91 295.685 247.063 295.685H221.685C216.39 295.685 214.524 288.632 219.144 286.047C228.539 280.79 237.768 277.385 246.744 276.772C249.709 276.57 252.216 278.947 252.216 281.919L252.217 290.531ZM324.134 288.905C324.134 292.309 321.374 295.068 317.97 295.068H276.793C272.643 295.068 269.679 291.05 270.904 287.085L272.563 281.718C273.361 279.136 275.749 277.374 278.452 277.374H317.97C321.374 277.374 324.134 280.134 324.134 283.537V288.905Z" fill="white"/>
<path d="M299.392 266.786H268.951V269.576H299.392V266.786Z" fill="#263238"/>
<path opacity="0.2" d="M299.392 266.786H268.951V269.576H299.392V266.786Z" fill="white"/>
<path d="M115.301 263.874L86.7837 253.226L85.8077 255.84L114.325 266.488L115.301 263.874Z" fill="#263238"/>
<path opacity="0.2" d="M115.301 263.874L86.7837 253.226L85.8077 255.84L114.325 266.488L115.301 263.874Z" fill="white"/>
<path d="M91.9471 339.708L83.5751 351.187H79.7061V335.751H91.9471V339.708Z" fill="#263238"/>
<path opacity="0.1" d="M91.9471 339.708L83.5751 351.187H79.7061V335.751H91.9471V339.708Z" fill="white"/>
<path d="M334.09 361.125C340.395 361.125 345.506 356.014 345.506 349.709C345.506 343.405 340.395 338.293 334.09 338.293C327.785 338.293 322.674 343.405 322.674 349.709C322.674 356.014 327.785 361.125 334.09 361.125Z" fill="#263238"/>
<path opacity="0.2" d="M328.795 349.709C328.795 352.634 331.166 355.005 334.091 355.005C337.016 355.005 339.387 352.634 339.387 349.709C339.387 346.784 337.016 344.413 334.091 344.413C331.166 344.413 328.795 346.784 328.795 349.709Z" fill="black"/>
<path d="M322.675 339.708L331.046 351.187H334.915V335.751H322.675V339.708Z" fill="#263238"/>
<path opacity="0.1" d="M322.675 339.708L331.046 351.187H334.915V335.751H322.675V339.708Z" fill="white"/>
<path d="M272.237 147.78C272.351 148.145 272.538 148.704 272.707 149.176L273.242 150.666C273.612 151.66 274.011 152.648 274.438 153.621C275.287 155.566 276.21 157.47 277.24 159.27C279.292 162.861 281.787 166.109 284.728 168.189L285.246 168.546C285.253 168.558 285.246 168.574 285.242 168.58C285.231 168.598 285.239 168.636 285.363 168.653C285.608 168.7 286.261 168.566 286.975 168.217C288.433 167.511 290.11 166.241 291.649 164.82C293.224 163.405 294.74 161.81 296.228 160.164C297.72 158.533 299.177 156.769 300.558 155.075L304.535 157.478C302.423 161.837 299.996 165.875 296.802 169.729C295.157 171.619 293.416 173.514 290.871 175.108C289.587 175.883 288.059 176.647 285.999 176.888C284.976 176.994 283.818 176.915 282.71 176.586C282.155 176.427 281.623 176.2 281.124 175.939C280.739 175.731 280.491 175.581 280.168 175.397C277.741 173.967 275.669 172.165 273.892 170.222C272.096 168.286 270.584 166.195 269.253 164.046C267.913 161.897 266.775 159.673 265.773 157.404C265.277 156.267 264.816 155.118 264.386 153.954C264.172 153.371 263.959 152.786 263.767 152.189C263.57 151.569 263.403 151.033 263.2 150.291L272.237 147.78Z" fill="#CE7A63"/>
<path d="M282 162.244L272.22 169.543C272.22 169.543 271.844 169.131 271.224 168.415C270.773 167.887 270.189 167.191 269.513 166.373C265.714 161.744 260.158 153.294 260.113 149.155C260.046 142.986 266.451 142.077 273.639 148.388C276.74 151.11 278.359 155.629 279.937 158.43C280.459 159.353 280.898 160.161 281.236 160.789C281.723 161.7 282 162.244 282 162.244Z" fill="#407BFF"/>
<path opacity="0.2" d="M260.048 149.867C262.258 148.406 263.872 152.187 268.238 155.381C270.186 156.806 274.452 166.093 274.101 168.138L272.217 169.543C272.217 169.543 259.999 156.016 260.048 149.867Z" fill="black"/>
<path d="M299.85 156.089L301.979 149.283L307.506 153.333C307.506 153.333 304.488 159.398 302.441 158.848L299.85 156.089Z" fill="#CE7A63"/>
<path d="M307.803 146.677L310.913 150.491L307.506 153.333L301.979 149.283L307.803 146.677Z" fill="#CE7A63"/>
<path d="M292.019 175.101C292.019 175.101 293.671 173.274 292.599 166.863C291.527 160.452 290.724 152.278 292.169 151.439C293.614 150.6 305.553 143.715 305.553 143.715L306.035 166.763L292.019 175.101Z" fill="#407BFF"/>
<path opacity="0.7" d="M292.019 175.101C292.019 175.101 293.671 173.274 292.599 166.863C291.527 160.452 290.724 152.278 292.169 151.439C293.614 150.6 305.553 143.715 305.553 143.715L306.035 166.763L292.019 175.101Z" fill="white"/>
<path d="M294.46 176.344L292.845 151.973C292.824 151.651 292.982 151.342 293.256 151.172L306.705 142.816C306.955 142.66 307.281 142.832 307.293 143.127L308.311 166.803C308.324 167.101 308.184 167.384 307.941 167.556L295.065 176.633C294.821 176.807 294.48 176.644 294.46 176.344Z" fill="#407BFF"/>
<path d="M300.639 146.139C300.516 145.854 300.231 145.391 299.731 145.67C299.278 145.923 299.156 146.588 299.125 147.024C298.417 147.44 297.755 147.833 297.296 148.115C297.196 148.176 297.147 148.289 297.164 148.405L297.402 150.027C297.447 150.337 297.798 150.497 298.061 150.328L302.578 147.435C302.905 147.226 303.086 146.852 303.049 146.466L302.926 145.192C302.91 145.025 302.731 144.928 302.586 145.012C302.191 145.238 301.458 145.662 300.639 146.139ZM299.958 146.075C300.13 146.005 300.207 146.196 300.243 146.369C300.06 146.476 299.875 146.584 299.69 146.692C299.718 146.447 299.787 146.145 299.958 146.075Z" fill="#263238"/>
<path d="M269.787 198.067C269.787 198.067 278.147 248.441 280.624 266.013C283.336 285.256 288.426 354.446 288.426 354.446H276.954C276.954 354.446 267.46 290.016 263.038 271.31C258.238 251.007 247.672 198.067 247.672 198.067H269.787Z" fill="#407BFF"/>
<path opacity="0.2" d="M269.787 198.067C269.787 198.067 278.147 248.441 280.624 266.013C283.336 285.256 288.426 354.446 288.426 354.446H276.954C276.954 354.446 267.46 290.016 263.038 271.31C258.238 251.007 247.672 198.067 247.672 198.067H269.787Z" fill="black"/>
<path opacity="0.2" d="M256.372 218.727C260.646 229.403 261.13 247.55 259.394 254.988C256.773 242.776 253.768 228.168 251.456 216.807C252.282 213.894 253.776 212.233 256.372 218.727Z" fill="black"/>
<path d="M269.787 198.067H236.69C236.456 195.112 237.141 185.496 236.632 173.25C236.29 165.028 235.405 155.62 233.343 146.255C233.193 145.587 233.043 144.927 232.884 144.26C232.884 144.26 234.562 143.918 236.966 143.567C238.961 143.275 241.465 142.974 243.919 142.857C248.143 142.657 254.261 142.523 257.984 142.857C260.146 143.058 262.258 143.417 263.944 143.742C266.098 144.176 267.367 144.547 267.367 144.547C267.367 144.547 275.522 163.267 269.787 198.067Z" fill="#407BFF"/>
<path d="M241.453 355.162H247.641L248.445 340.832H242.257L241.453 355.162Z" fill="#CE7A63"/>
<path d="M247.966 354.446H241.014C240.761 354.446 240.57 354.622 240.555 354.869L240.218 360.37C240.183 360.941 240.718 361.481 241.301 361.47C243.722 361.428 244.878 361.286 247.935 361.286C249.816 361.286 257.813 361.481 260.41 361.481C262.95 361.481 262.933 358.913 261.833 358.68C256.897 357.637 250.779 356.198 249.032 354.826C248.717 354.579 248.336 354.446 247.966 354.446Z" fill="#263238"/>
<path d="M285.918 354.446H278.966C278.713 354.446 278.522 354.622 278.507 354.869L278.17 360.37C278.135 360.941 278.67 361.481 279.253 361.47C281.673 361.428 282.83 361.286 285.887 361.286C287.768 361.286 295.765 361.481 298.362 361.481C300.902 361.481 300.885 358.913 299.784 358.68C294.848 357.637 288.73 356.198 286.983 354.826C286.669 354.579 286.288 354.446 285.918 354.446Z" fill="#263238"/>
<path opacity="0.2" d="M242.255 340.835H248.446L248.029 348.222H241.838L242.255 340.835Z" fill="black"/>
<path opacity="0.2" d="M236.632 173.253C236.29 165.031 235.405 155.623 233.343 146.258C235.555 146.066 239.336 146.283 239.962 149.856C240.638 153.695 239.787 162.727 236.632 173.253Z" fill="black"/>
<g opacity="0.2">
<path opacity="0.2" d="M242.255 340.835H248.446L248.029 348.222H241.838L242.255 340.835Z" fill="black"/>
</g>
<path d="M257.701 198.067C257.701 198.067 258.29 245.264 257.286 262.946C256.187 282.309 250.127 354.446 250.127 354.446H239.21C239.21 354.446 239.687 283.872 239.004 264.701C238.263 243.894 236.343 198.067 236.343 198.067H257.701Z" fill="#407BFF"/>
<path opacity="0.2" d="M257.701 198.067C257.701 198.067 258.29 245.264 257.286 262.946C256.187 282.309 250.127 354.446 250.127 354.446H239.21C239.21 354.446 239.687 283.872 239.004 264.701C238.263 243.894 236.343 198.067 236.343 198.067H257.701Z" fill="black"/>
<path d="M270.527 159.922L260.78 161.569L259.759 156.096L269.51 154.47L270.527 159.922Z" fill="white"/>
<path d="M235.397 193.061L241.559 191.987L238.397 199.119C238.397 199.119 232.773 199.086 233.031 196.188L235.397 193.061Z" fill="#CE7A63"/>
<path d="M246.156 195.571L243.261 201.333L238.397 199.119L241.559 191.987L246.156 195.571Z" fill="#CE7A63"/>
<path d="M238.885 153.246L237.418 155.779C236.921 156.647 236.437 157.526 235.966 158.411C235.017 160.178 234.098 161.958 233.224 163.747C232.369 165.541 231.546 167.345 230.813 169.154C230.456 170.058 230.104 170.968 229.796 171.874L229.329 173.231L228.934 174.583L228.835 174.922L228.785 175.091C228.768 175.148 228.778 175.113 228.771 175.129C228.754 175.137 228.741 175.203 228.723 175.279C228.696 175.451 228.696 175.73 228.725 176.055C228.778 176.713 228.958 177.534 229.215 178.375C229.741 180.066 230.478 181.886 231.33 183.669C233.004 187.262 235.047 190.89 237.052 194.431L233.391 197.292C230.315 194.17 227.623 190.857 225.144 187.169C223.94 185.303 222.763 183.38 221.81 181.147C221.332 180.027 220.893 178.836 220.591 177.428C220.446 176.72 220.342 175.952 220.337 175.076C220.342 174.629 220.362 174.171 220.443 173.664L220.501 173.316L220.544 173.104L220.63 172.679C221.505 168.112 223.025 163.913 224.767 159.869C225.646 157.852 226.605 155.883 227.628 153.952C228.144 152.988 228.673 152.034 229.219 151.084C229.766 150.117 230.313 149.226 230.967 148.216L238.885 153.246Z" fill="#CE7A63"/>
<path d="M241.097 155.529C239.703 159.669 237.416 164.628 235.73 168.092C235.288 169.01 234.878 169.828 234.545 170.488C233.961 171.648 233.593 172.349 233.593 172.349L221.055 165.404C221.055 165.404 221.214 164.878 221.498 163.993C221.715 163.325 221.999 162.449 222.349 161.439C224.436 155.487 228.701 144.869 232.883 144.26C239.136 143.35 243.635 148.024 241.097 155.529Z" fill="#407BFF"/>
<path d="M244.219 127.081L247.984 130.203L253.109 134.46C252.959 135.153 252.842 135.854 252.783 136.531C252.508 139.31 253.226 141.84 257.316 142.808C257.951 144.148 255.99 149.185 254.61 148.913C252.346 149.227 243.891 144.63 243.376 142.891C246.44 139.87 245.263 131.614 244.219 127.081Z" fill="#CE7A63"/>
<path opacity="0.2" d="M253.109 134.46C252.959 135.153 252.842 135.854 252.783 136.531C250.872 136.147 248.317 134.11 248.05 132.157C247.95 131.423 247.933 130.713 247.983 130.204L253.109 134.46Z" fill="black"/>
<path d="M256.587 111.267C259.638 112.646 261.337 121.239 257.453 123.087C253.569 124.935 250.809 108.655 256.587 111.267Z" fill="#263238"/>
<path d="M242.667 120.562C243.976 126.58 244.435 130.158 247.989 132.904C253.335 137.035 260.421 133.365 260.94 127.141C261.407 121.539 259.189 112.639 252.858 110.935C246.622 109.256 241.358 114.545 242.667 120.562Z" fill="#CE7A63"/>
<path d="M235.867 114.378C232.945 115.678 234.605 119.684 236.593 122.23C239.356 125.768 242.278 127.421 244.271 125.79C246.058 124.894 247.235 119.631 245.676 116.381C248.428 114.576 257.832 117.669 260.843 110.209C262.191 106.87 259.683 101.27 253.886 101.502C253.731 102.308 253.347 103.139 252.798 103.933C252.407 104.499 251.933 105.046 251.398 105.552C250.86 106.062 250.261 106.53 249.625 106.933C247.827 108.074 245.736 108.697 243.9 108.284C237.668 106.882 232.942 110.918 235.867 114.378Z" fill="#263238"/>
<path d="M255.242 114.886C255.242 114.886 261.414 113.598 261.773 106.72C262.395 111.096 258.988 115.468 255.242 114.886Z" fill="#263238"/>
<path d="M241.281 126.842C242.357 128.135 243.838 128.898 245.1 129.113C246.998 129.437 247.425 127.679 246.461 125.98C245.593 124.451 243.559 122.441 241.865 122.889C240.194 123.332 240.05 125.364 241.281 126.842Z" fill="#CE7A63"/>
<path d="M252.162 121.159C252.238 121.653 252.562 122.021 252.886 121.983C253.21 121.945 253.411 121.513 253.335 121.019C253.259 120.525 252.935 120.156 252.61 120.195C252.286 120.234 252.085 120.666 252.162 121.159Z" fill="#263238"/>
<path d="M257.764 120.493C257.84 120.987 258.164 121.356 258.488 121.317C258.812 121.278 259.013 120.847 258.937 120.353C258.861 119.859 258.537 119.49 258.213 119.529C257.889 119.568 257.688 119.999 257.764 120.493Z" fill="#263238"/>
<path d="M256.021 120.95C256.021 120.95 257.587 123.664 259.04 124.89C258.289 125.809 256.741 125.614 256.741 125.614L256.021 120.95Z" fill="#BA4D3C"/>
<path d="M254.92 127.185C252.953 127.185 251.854 125.959 251.804 125.902C251.751 125.841 251.757 125.749 251.818 125.695C251.879 125.641 251.971 125.648 252.025 125.708C252.038 125.722 253.288 127.119 255.467 126.858C255.548 126.848 255.62 126.906 255.63 126.986C255.64 127.066 255.582 127.139 255.502 127.149C255.3 127.174 255.106 127.185 254.92 127.185Z" fill="#263238"/>
<path d="M250.151 119.564C250.103 119.564 250.054 119.552 250.009 119.527C249.868 119.448 249.816 119.27 249.895 119.128C250.673 117.727 252.03 117.646 252.087 117.644C252.239 117.622 252.386 117.76 252.394 117.922C252.402 118.084 252.277 118.221 252.116 118.229C252.06 118.233 251.018 118.312 250.407 119.413C250.354 119.51 250.254 119.564 250.151 119.564Z" fill="#263238"/>
<path d="M259.877 118.288C259.783 118.288 259.691 118.243 259.635 118.16C258.884 117.058 257.794 117.039 257.783 117.039C257.621 117.038 257.49 116.906 257.492 116.744C257.493 116.583 257.624 116.453 257.785 116.453H257.787C257.844 116.453 259.198 116.477 260.12 117.83C260.211 117.964 260.177 118.146 260.043 118.237C259.991 118.272 259.933 118.288 259.877 118.288Z" fill="#263238"/>
<path d="M264.119 173.799C265.254 173.799 266.174 172.879 266.174 171.744C266.174 170.61 265.254 169.689 264.119 169.689C262.984 169.689 262.064 170.61 262.064 171.744C262.064 172.879 262.984 173.799 264.119 173.799Z" fill="#263238"/>
<g opacity="0.6">
<path d="M264.119 173.799C265.254 173.799 266.174 172.879 266.174 171.744C266.174 170.61 265.254 169.689 264.119 169.689C262.984 169.689 262.064 170.61 262.064 171.744C262.064 172.879 262.984 173.799 264.119 173.799Z" fill="white"/>
</g>
<path d="M256.303 154.798C256.322 153.622 256.521 152.358 256.732 151.019C257.467 146.357 258.299 141.074 251.335 138.062C249.229 137.152 247.362 137.17 245.785 138.119C242.219 140.265 241.303 146.476 241.121 148.099C239.708 148.01 238.564 148.413 237.721 149.312C235.172 152.032 236.338 158.298 236.388 158.564C236.429 158.777 236.635 158.915 236.847 158.875C237.06 158.834 237.199 158.629 237.158 158.416C237.146 158.355 236.014 152.28 238.292 149.849C239.043 149.048 240.066 148.743 241.423 148.91C242.764 149.078 243.718 149.649 244.338 150.656C246.304 153.849 244.073 160.208 244.05 160.272C243.977 160.476 244.083 160.7 244.287 160.773C244.331 160.789 244.375 160.796 244.419 160.796C244.58 160.796 244.731 160.696 244.788 160.536C244.886 160.261 247.169 153.759 245.006 150.246C244.325 149.14 243.279 148.456 241.9 148.197C242.077 146.68 242.969 140.728 246.189 138.791C247.536 137.981 249.163 137.978 251.023 138.783C257.428 141.553 256.68 146.304 255.956 150.898C255.741 152.264 255.537 153.554 255.518 154.786C255.418 161.098 257.435 171.19 263.276 171.398L263.304 170.613C257.827 170.419 256.222 159.874 256.303 154.798Z" fill="#263238"/>
<path opacity="0.2" d="M256.303 154.798C256.322 153.622 256.521 152.358 256.732 151.019C257.467 146.357 258.299 141.074 251.335 138.062C249.229 137.152 247.362 137.17 245.785 138.119C242.219 140.265 241.303 146.476 241.121 148.099C239.708 148.01 238.564 148.413 237.721 149.312C235.172 152.032 236.338 158.298 236.388 158.564C236.429 158.777 236.635 158.915 236.847 158.875C237.06 158.834 237.199 158.629 237.158 158.416C237.146 158.355 236.014 152.28 238.292 149.849C239.043 149.048 240.066 148.743 241.423 148.91C242.764 149.078 243.718 149.649 244.338 150.656C246.304 153.849 244.073 160.208 244.05 160.272C243.977 160.476 244.083 160.7 244.287 160.773C244.331 160.789 244.375 160.796 244.419 160.796C244.58 160.796 244.731 160.696 244.788 160.536C244.886 160.261 247.169 153.759 245.006 150.246C244.325 149.14 243.279 148.456 241.9 148.197C242.077 146.68 242.969 140.728 246.189 138.791C247.536 137.981 249.163 137.978 251.023 138.783C257.428 141.553 256.68 146.304 255.956 150.898C255.741 152.264 255.537 153.554 255.518 154.786C255.418 161.098 257.435 171.19 263.276 171.398L263.304 170.613C257.827 170.419 256.222 159.874 256.303 154.798Z" fill="white"/>
<path d="M244.845 159.795L243.762 159.576C243.762 159.576 242.938 161.305 243.616 161.607C244.294 161.909 245.208 160.703 244.845 159.795Z" fill="#263238"/>
<g opacity="0.6">
<path d="M244.845 159.795L243.762 159.576C243.762 159.576 242.938 161.305 243.616 161.607C244.294 161.909 245.208 160.703 244.845 159.795Z" fill="white"/>
</g>
<path d="M236.599 157.86H237.704C237.704 157.86 238.169 159.718 237.445 159.88C236.721 160.042 236.063 158.678 236.599 157.86Z" fill="#263238"/>
<g opacity="0.6">
<path d="M236.599 157.86H237.704C237.704 157.86 238.169 159.718 237.445 159.88C236.721 160.042 236.063 158.678 236.599 157.86Z" fill="white"/>
</g>
<path d="M264.821 170.839C264.821 171.474 264.306 171.989 263.671 171.989C263.036 171.989 262.521 171.474 262.521 170.839C262.521 170.204 263.036 169.689 263.671 169.689C264.306 169.69 264.821 170.205 264.821 170.839Z" fill="#263238"/>
<g opacity="0.7">
<path d="M264.821 170.839C264.821 171.474 264.306 171.989 263.671 171.989C263.036 171.989 262.521 171.474 262.521 170.839C262.521 170.204 263.036 169.689 263.671 169.689C264.306 169.69 264.821 170.205 264.821 170.839Z" fill="white"/>
</g>
<path d="M252.744 137.041H245.306C245.243 138.299 245.066 139.484 244.735 140.512H253.518C252.857 139.513 252.677 138.312 252.744 137.041Z" fill="#CE7A63"/>
<path d="M122.007 73.6955H119.554V350.746H122.007V73.6955Z" fill="#263238"/>
<path opacity="0.5" d="M122.007 73.6955H119.554V350.746H122.007V73.6955Z" fill="white"/>
<path d="M106.011 81.1085H100.013V79.4895H104.527L104.543 78.2315H106.011V81.1085Z" fill="#263238"/>
<path opacity="0.1" d="M106.011 81.1085H100.013V79.4895H104.527L104.543 78.2315H106.011V81.1085Z" fill="white"/>
<path d="M135.722 81.1085H141.72V79.4895H137.205L137.189 78.2315H135.722V81.1085Z" fill="#263238"/>
<path opacity="0.1" d="M135.722 81.1085H141.72V79.4895H137.205L137.189 78.2315H135.722V81.1085Z" fill="white"/>
<path d="M126.531 238.001C118.31 238.001 118.015 222.298 117.776 209.682C117.725 206.962 117.676 204.394 117.547 202.267C117.439 200.495 117.244 197.851 117.003 194.583C115.799 178.229 113.558 147.791 114.905 130.46C116.284 112.727 111.64 87.8505 105.703 81.1685C104.823 80.1775 103.97 79.6595 103.166 79.6265C102.662 79.6055 102.203 79.8125 101.73 80.2545C96.4891 85.1595 95.7061 112.874 95.6981 113.154L91.5701 208.617L90.3091 208.564L94.4371 113.109C94.4671 111.957 95.2451 84.5945 100.868 79.3325C101.59 78.6575 102.391 78.3315 103.216 78.3655C104.376 78.4125 105.529 79.0725 106.646 80.3295C112.875 87.3405 117.589 112.219 116.163 130.557C114.823 147.792 117.06 178.17 118.261 194.49C118.502 197.765 118.697 200.413 118.805 202.189C118.936 204.342 118.985 206.924 119.037 209.658C119.253 221.087 119.548 236.738 126.53 236.738C132.414 236.738 133.811 227.885 135.29 218.512C135.984 214.107 136.703 209.556 137.924 205.65C141.71 193.535 138.362 125.935 138.332 125.667L139.585 125.525C139.712 126.629 142.993 193.66 139.127 206.027C137.935 209.844 137.223 214.35 136.536 218.708C134.972 228.63 133.493 238.001 126.531 238.001Z" fill="#407BFF"/>
<path d="M92.8772 361.565C94.966 361.565 96.6592 359.871 96.6592 357.783C96.6592 355.694 94.966 354 92.8772 354C90.7885 354 89.0952 355.694 89.0952 357.783C89.0952 359.871 90.7885 361.565 92.8772 361.565Z" fill="#263238"/>
<path opacity="0.3" d="M94.3764 357.783C94.3764 358.611 93.7054 359.281 92.8774 359.281C92.0494 359.281 91.3784 358.611 91.3784 357.783C91.3784 356.955 92.0494 356.284 92.8774 356.284C93.7054 356.284 94.3764 356.955 94.3764 357.783Z" fill="black"/>
<path d="M92.8774 357.783L96.6594 356.363C96.6594 356.363 96.1664 353.958 93.4524 353.557C90.7384 353.156 89.5054 355.315 89.5054 355.315L92.8774 357.783Z" fill="#263238"/>
<path opacity="0.2" d="M92.8774 357.783L96.6594 356.363C96.6594 356.363 96.1664 353.958 93.4524 353.557C90.7384 353.156 89.5054 355.315 89.5054 355.315L92.8774 357.783Z" fill="black"/>
<path d="M148.887 361.565C150.976 361.565 152.669 359.871 152.669 357.783C152.669 355.694 150.976 354 148.887 354C146.798 354 145.105 355.694 145.105 357.783C145.105 359.871 146.798 361.565 148.887 361.565Z" fill="#263238"/>
<path opacity="0.3" d="M147.388 357.783C147.388 358.611 148.059 359.281 148.887 359.281C149.715 359.281 150.386 358.611 150.386 357.783C150.386 356.955 149.715 356.284 148.887 356.284C148.059 356.284 147.388 356.955 147.388 357.783Z" fill="black"/>
<path d="M148.887 357.783L145.105 356.363C145.105 356.363 145.598 353.958 148.312 353.557C151.026 353.156 152.259 355.315 152.259 355.315L148.887 357.783Z" fill="#263238"/>
<path opacity="0.2" d="M148.887 357.783L145.105 356.363C145.105 356.363 145.598 353.958 148.312 353.557C151.026 353.156 152.259 355.315 152.259 355.315L148.887 357.783Z" fill="black"/>
<path d="M92.2952 208.548H89.1992V217.836H92.2952V208.548Z" fill="#263238"/>
<path opacity="0.1" d="M92.2952 208.548H89.1992V217.836H92.2952V208.548Z" fill="white"/>
<path d="M91.5534 223.426H89.9404V220.63V217.836H91.5534V220.63V223.426Z" fill="#263238"/>
<path opacity="0.5" d="M91.5534 223.426H89.9404V220.63V217.836H91.5534V220.63V223.426Z" fill="white"/>
<path d="M90.7474 229.036L90.3604 223.426H91.1344L90.7474 229.036Z" fill="#407BFF"/>
<path opacity="0.5" d="M90.7474 229.036L90.3604 223.426H91.1344L90.7474 229.036Z" fill="white"/>
<path d="M137.028 89.3915L136.047 89.2015C136.056 89.1525 137.009 84.2215 137.226 82.0745C137.493 79.4325 138.503 78.4955 139.287 78.4955C140.085 78.4955 140.729 79.7805 141.202 82.3135C141.456 83.6745 141.446 88.8515 141.445 89.0715L140.445 89.0685C140.445 89.0155 140.456 83.7665 140.218 82.4975C139.878 80.6715 139.405 79.6145 139.194 79.4745C139.112 79.4955 138.426 80.1375 138.22 82.1755C137.999 84.3665 137.068 89.1875 137.028 89.3915Z" fill="#407BFF"/>
<path d="M145.271 120.615C144.844 122.18 141.075 126.518 139.154 126.518C137.234 126.518 132.682 123.317 132.184 121.255C131.686 119.192 133.749 115.139 134.033 112.223C134.317 109.307 132.824 96.9315 132.966 94.1575C133.108 91.3835 133.962 90.3165 135.242 89.2505C136.522 88.1835 142.09 88.0245 143.066 89.2505C144.042 90.4755 145.271 91.5265 145.271 93.7315C145.271 95.9365 143.706 110.16 143.777 112.436C143.848 114.712 145.697 119.05 145.271 120.615Z" fill="#407BFF"/>
<path opacity="0.6" d="M145.271 120.615C144.844 122.18 141.075 126.518 139.154 126.518C137.234 126.518 132.682 123.317 132.184 121.255C131.686 119.192 133.749 115.139 134.033 112.223C134.317 109.307 132.824 96.9315 132.966 94.1575C133.108 91.3835 133.962 90.3165 135.242 89.2505C136.522 88.1835 142.09 88.0245 143.066 89.2505C144.042 90.4755 145.271 91.5265 145.271 93.7315C145.271 95.9365 143.706 110.16 143.777 112.436C143.848 114.712 145.697 119.05 145.271 120.615Z" fill="white"/>
<path d="M144.559 119.833C144.214 121.097 140.271 124.598 138.72 124.598C137.169 124.598 133.781 121.641 133.379 119.975C132.977 118.309 134.705 113.66 134.935 111.305C135.165 108.95 133.959 98.9565 134.074 96.7165C135.1 94.5845 144.01 94.5915 144.01 96.3715C144.01 98.1515 142.746 109.639 142.804 111.477C142.861 113.316 144.904 118.57 144.559 119.833Z" fill="#407BFF"/>
<path opacity="0.2" d="M144.559 119.833C144.214 121.097 140.271 124.598 138.72 124.598C137.169 124.598 133.781 121.641 133.379 119.975C132.977 118.309 134.705 113.66 134.935 111.305C135.165 108.95 133.959 98.9565 134.074 96.7165C135.1 94.5845 144.01 94.5915 144.01 96.3715C144.01 98.1515 142.746 109.639 142.804 111.477C142.861 113.316 144.904 118.57 144.559 119.833Z" fill="white"/>
<path d="M142.028 89.2965H135.882C135.381 89.2965 134.975 88.8905 134.975 88.3895C134.975 87.8885 135.381 87.4825 135.882 87.4825H142.028C142.529 87.4825 142.935 87.8885 142.935 88.3895C142.935 88.8905 142.529 89.2965 142.028 89.2965Z" fill="#407BFF"/>
<path opacity="0.2" d="M142.028 89.2965H135.882C135.381 89.2965 134.975 88.8905 134.975 88.3895C134.975 87.8885 135.381 87.4825 135.882 87.4825H142.028C142.529 87.4825 142.935 87.8885 142.935 88.3895C142.935 88.8905 142.529 89.2965 142.028 89.2965Z" fill="white"/>
<path d="M148.887 350.645H92.8774V353.507H148.887V350.645Z" fill="#263238"/>
<path opacity="0.1" d="M148.887 350.645H92.8774V353.507H148.887V350.645Z" fill="white"/>
<path d="M141.72 73.6955H100.013V76.5045H141.72V73.6955Z" fill="#263238"/>
<path opacity="0.1" d="M141.72 73.6955H100.013V76.5045H141.72V73.6955Z" fill="white"/>
<path d="M102.163 73.6955H100.013V81.1085H102.163V73.6955Z" fill="#263238"/>
<path opacity="0.1" d="M102.163 73.6955H100.013V81.1085H102.163V73.6955Z" fill="white"/>
<path d="M141.72 73.6955H139.57V81.1085H141.72V73.6955Z" fill="#263238"/>
<path opacity="0.1" d="M141.72 73.6955H139.57V81.1085H141.72V73.6955Z" fill="white"/>
</svg>
