<svg width="170" height="145" viewBox="0 0 170 145" fill="none" xmlns="http://www.w3.org/2000/svg">
<path d="M155.944 120.911C155.784 120.802 155.57 120.851 155.467 121.018C153.638 123.968 152.752 126.542 152.332 128.504C151.479 125.002 149.46 121.678 149.357 121.508C149.254 121.34 149.04 121.291 148.88 121.399C148.72 121.507 148.673 121.73 148.776 121.898C148.806 121.947 151.76 126.809 152.002 130.807C151.932 131.846 152.011 132.455 152.021 132.523C152.046 132.702 152.193 132.831 152.362 132.831C152.378 132.831 152.395 132.83 152.412 132.827C152.6 132.798 152.731 132.615 152.704 132.418C152.697 132.372 152.117 127.749 156.046 121.41C156.149 121.243 156.104 121.02 155.944 120.911Z" fill="#614C9A"/>
<path d="M155.748 116.716C152.341 113.567 151.04 114.566 151.148 111.327C151.256 108.089 149.505 105.584 147.811 105.118C146.117 104.652 144.133 104.736 143.347 101.169C142.562 97.6022 139.496 97.2178 138.073 97.9624C136.65 98.7069 135.105 101.504 137.362 104.301C139.619 107.098 138.366 108.708 137.705 110.406C137.045 112.104 137.912 115.072 140.454 116.924C142.995 118.776 141.451 119.266 141.817 124.007C142.182 128.748 151.643 126.343 151.643 126.343C151.643 126.343 159.156 119.866 155.748 116.716Z" fill="#9278D1"/>
<path d="M150.948 114.848L147.991 118.706L146.215 114.991L144.948 112.342L146.85 107.432L144.654 111.726L142.666 107.569L138.605 99.0765L142.311 107.304L138.828 105.278L142.452 107.618L145.799 115.047L139.639 113.259L146.241 116.028L149.514 123.49L143.884 122.138L150.052 124.491L151.031 126.664L151.643 126.343L148.359 119.475L150.948 114.848Z" fill="#614C9A"/>
<path d="M149.554 115.027C152.961 111.877 154.262 112.876 154.154 109.638C154.047 106.399 155.797 103.894 157.491 103.428C159.186 102.963 161.17 103.046 161.955 99.4793C162.741 95.9125 165.807 95.5281 167.229 96.2726C168.652 97.0172 170.197 99.8145 167.94 102.611C165.683 105.408 166.937 107.019 167.597 108.717C168.257 110.415 167.39 113.382 164.848 115.234C162.307 117.086 163.851 117.576 163.485 122.318C163.12 127.059 153.659 124.654 153.659 124.654C153.659 124.654 146.147 118.176 149.554 115.027Z" fill="#D1D1F4"/>
<path d="M154.355 113.158L157.311 117.016L159.088 113.301L160.354 110.652L158.453 105.742L160.649 110.036L162.636 105.879L166.697 97.3864L162.991 105.614L166.474 103.588L162.85 105.928L159.503 113.357L165.663 111.569L159.061 114.338L155.788 121.801L161.418 120.448L155.25 122.801L154.271 124.973L153.66 124.654L156.943 117.785L154.355 113.158Z" fill="#614C9A"/>
<path d="M159.856 138.028C159.856 136.177 158.87 134.522 157.319 133.409C157.299 132.605 156.673 131.959 155.9 131.959H149.402C148.629 131.959 148.003 132.605 147.983 133.41C146.432 134.523 145.446 136.177 145.446 138.028C145.446 139.879 146.433 141.533 147.983 142.646C148.003 143.45 148.629 144.097 149.402 144.097H155.9C156.673 144.097 157.299 143.451 157.319 142.646C158.87 141.533 159.856 139.878 159.856 138.028Z" fill="white"/>
<path d="M147.983 133.59H157.319C157.414 133.59 157.492 133.509 157.492 133.409C157.492 133.31 157.414 133.229 157.319 133.229H147.983C147.888 133.229 147.811 133.31 147.811 133.409C147.811 133.509 147.888 133.59 147.983 133.59Z" fill="#8E7ED6"/>
<path d="M157.319 142.465H147.983C147.888 142.465 147.811 142.546 147.811 142.646C147.811 142.745 147.888 142.826 147.983 142.826H157.319C157.414 142.826 157.492 142.745 157.492 142.646C157.492 142.546 157.414 142.465 157.319 142.465Z" fill="#8E7ED6"/>
<path d="M65.5989 55.5481H20.8094V72.8703H65.5989V55.5481Z" fill="#EFEAF4"/>
<path d="M50.3741 57.7687H22.4054V58.7788H50.3741V57.7687Z" fill="#D1D1F4"/>
<path d="M27.4911 34.7327C27.4911 34.1083 27.4911 33.4836 27.4911 32.8589C27.5156 32.634 27.5404 32.4095 27.5642 32.1847C27.9299 28.7442 29.1859 25.7094 31.4027 23.1361C33.7561 20.4041 36.6718 18.6985 40.1411 18.0561C40.7162 17.9496 41.2988 17.889 41.878 17.8074C42.4748 17.8074 43.072 17.8074 43.6688 17.8074C43.7453 17.8251 43.8216 17.8533 43.8992 17.859C46.2898 18.0359 48.5263 18.7505 50.5668 20.0591C54.5256 22.5977 56.9628 26.2569 57.8177 31.045C57.9246 31.6441 57.9777 32.254 58.0557 32.8589C58.0557 33.4836 58.0557 34.1079 58.0557 34.7327C58.0312 34.9571 58.0064 35.182 57.9826 35.4068C57.6169 38.8473 56.3609 41.8821 54.1441 44.4554C51.7907 47.1874 48.875 48.893 45.4057 49.5354C44.8306 49.6419 44.248 49.7025 43.6688 49.7841C43.072 49.7841 42.4748 49.7841 41.878 49.7841C41.8011 49.7664 41.7252 49.7383 41.6476 49.7325C39.257 49.5556 37.0205 48.841 34.98 47.5324C31.0212 44.9938 28.584 41.3346 27.7291 36.5466C27.6222 35.9475 27.5691 35.3375 27.4911 34.7327ZM55.6823 33.8001C55.6878 26.354 49.9144 20.3067 42.7853 20.2908C35.6765 20.2749 29.89 26.3146 29.8652 33.7759C29.8403 41.2188 35.651 47.3054 42.7774 47.3007C49.901 47.2964 55.6771 41.2538 55.6823 33.8001Z" fill="#EFEAF4"/>
<path d="M41.5851 30.1752C41.5855 28.9575 41.5755 27.7398 41.5886 26.5225C41.5986 25.5842 42.4144 24.9883 43.2099 25.316C43.6932 25.5152 43.9609 25.971 43.9613 26.6145C43.963 28.6753 43.9727 30.736 43.952 32.7964C43.9482 33.1646 44.0637 33.3739 44.3376 33.5839C45.6127 34.5616 46.8704 35.5642 48.1364 36.5552C48.5766 36.8999 48.785 37.3452 48.648 37.9137C48.4431 38.7647 47.521 39.1166 46.8204 38.6106C46.3788 38.2919 45.9576 37.9415 45.5281 37.6047C44.438 36.7498 43.3562 35.8829 42.2547 35.0449C41.7852 34.6876 41.5706 34.2458 41.5796 33.6413C41.5972 32.4861 41.5851 31.3304 41.5851 30.1752Z" fill="#EFEAF4"/>
<path d="M112.414 17.8074H70.2802V57.7683H112.414V17.8074Z" fill="white"/>
<path d="M110.79 20.7044H71.9016C71.8036 20.7044 71.7242 20.7874 71.7242 20.8899C71.7242 20.9924 71.8036 21.0754 71.9016 21.0754H90.0456V54.8205C90.0456 54.923 90.1249 55.006 90.2229 55.006C90.3209 55.006 90.4002 54.923 90.4002 54.8205V21.0754H110.79C110.888 21.0754 110.967 20.9924 110.967 20.8899C110.967 20.7874 110.888 20.7044 110.79 20.7044Z" fill="#D1D1F4"/>
<path d="M79.7294 28.1863H74.5162V36.997H79.7294V28.1863Z" fill="#D1D1F4"/>
<path d="M74.5161 28.1863H79.7293C79.7293 28.1863 80.2184 36.4213 78.0103 36.4213H72.6995C72.6995 36.4213 74.5161 34.5096 74.5161 28.1863Z" fill="#D1D1F4"/>
<path d="M79.7294 38.7387H74.5162V47.5494H79.7294V38.7387Z" fill="#D1D1F4"/>
<path d="M74.5161 38.7387H79.7293C79.7293 38.7387 80.2184 46.9738 78.0103 46.9738H72.6995C72.6995 46.9738 74.5161 45.0621 74.5161 38.7387Z" fill="#D1D1F4"/>
<path d="M99.6745 38.7387H94.4613V47.5494H99.6745V38.7387Z" fill="#D1D1F4"/>
<path d="M94.4611 38.7387H99.6743C99.6743 38.7387 100.163 46.9738 97.9553 46.9738H92.6445C92.6445 46.9738 94.4611 45.0621 94.4611 38.7387Z" fill="#D1D1F4"/>
<path d="M1.16663 144.5H169.167" stroke="#221238" stroke-miterlimit="10" stroke-linecap="round" stroke-linejoin="round"/>
<path d="M47.6809 139.358C48.3881 138.952 48.989 136.984 49.4896 134.319V113.456H54.2377V134.15C54.7445 136.9 55.3554 138.944 56.0774 139.358C58.7261 140.878 66.2199 140.759 66.2199 144.097H51.8792H37.5385C37.5388 140.759 45.0322 140.878 47.6809 139.358Z" fill="white"/>
<path d="M54.2375 115.921C54.2375 115.921 52.0356 117.363 49.4894 117.346V113.455H54.2375V115.921Z" fill="#8E7ED6"/>
<path d="M74.2485 111.342C74.2485 111.342 54.9672 118.151 43.044 112.868C31.1212 107.585 35.0486 90.4451 37.0684 85.045C39.0882 79.6448 53.7888 77.8886 59.0626 85.752C64.3369 93.6149 74.6214 100.776 74.2485 111.342Z" fill="white"/>
<path d="M40.77 95.5826C35.3261 88.2653 41.7321 81.3879 41.8163 81.2984C47.1664 79.4697 55.394 80.2814 59.0631 85.7516C61.1425 88.8517 63.9999 91.8433 66.6765 94.977C60.5157 104.074 44.7937 100.991 40.77 95.5826Z" fill="#8E7ED6"/>
<path d="M58.5763 71.3985C58.5763 71.3985 58.3893 74.1482 60.0182 75.6893C61.6472 77.2303 61.7514 85.6733 58.7063 84.4245C55.6613 83.1758 51.879 73.6444 51.879 73.6444C51.879 73.6444 53.5894 71.1646 53.6032 69.1288C53.617 67.0929 58.668 69.5676 58.5763 71.3985Z" fill="#EAA373"/>
<path d="M53.3616 70.5753C53.504 70.0935 53.6003 69.5994 53.6034 69.1288C53.6172 67.0929 58.6682 69.5676 58.5765 71.3985C58.5765 71.3985 56.4446 72.2831 53.3616 70.5753Z" fill="#CE8451"/>
<path d="M50.4829 67.6982C49.4652 66.5267 49.1316 65.1094 49.7381 64.5327C50.3445 63.956 51.6613 64.4385 52.6789 65.61C52.6869 65.619 52.6938 65.6284 52.7014 65.6374C53.6683 66.7656 54.0009 68.1103 53.4765 68.7148C53.4589 68.735 53.443 68.7571 53.4234 68.7755C52.8173 69.3522 51.5005 68.87 50.4829 67.6982Z" fill="#EA736A"/>
<path d="M61.1418 62.6232C61.1418 62.6232 61.0904 64.5064 61.5424 65.9326C61.9943 67.3593 60.9249 70.0108 59.732 70.9892C58.5391 71.9677 55.5106 71.0719 54.297 70.2057C53.0834 69.3392 51.8518 66.7324 51.5624 65.4985C51.273 64.2642 52.1006 58.938 55.6054 58.7951C59.1103 58.6522 61.1287 59.4314 61.1418 62.6232Z" fill="#FABC8B"/>
<path d="M53.3616 61.6823C53.3616 61.6823 58.7825 63.6193 58.2774 62.2107C58.2774 62.2107 61.7257 64.82 61.6478 63.3406C61.6478 63.3406 64.4213 62.1248 63.0746 58.982C61.7278 55.8393 59.6435 56.7953 58.5776 56.2085C57.5116 55.6213 54.0543 54.1099 51.5091 56.2818C48.964 58.4537 49.7384 64.5327 49.7384 64.5327L51.0986 64.4338C51.0986 64.4338 51.7741 67.3409 52.5292 67.8866C52.5292 67.8866 52.2184 64.8517 52.4989 63.2667C52.7786 61.6823 54.281 62.8563 53.3616 61.6823Z" fill="#010200"/>
<path d="M67.4764 133.391L66.9904 138.669C66.9904 138.669 67.5151 143.536 71.4884 140.346L73.375 130.219L67.4764 133.391Z" fill="#FABC8B"/>
<path d="M76.4315 144.096H64.5614C64.5614 144.096 65.2306 136.699 67.1197 137.264C69.0087 137.829 69.2395 139.667 71.4884 138.631C73.1339 137.874 76.0796 139.723 77.5419 141.814C78.2049 142.762 77.554 144.096 76.4315 144.096Z" fill="#211A2D"/>
<path d="M75.2803 139.43C75.3717 139.426 75.4545 139.492 75.4635 139.589C75.4721 139.686 75.4038 139.771 75.3113 139.78C74.9008 139.82 73.7807 140.068 73.5317 140.729C73.5058 140.799 73.4423 140.841 73.375 140.841C73.3547 140.841 73.3336 140.837 73.3136 140.829C73.2267 140.793 73.1846 140.691 73.2188 140.6C73.5934 139.603 75.2113 139.436 75.2803 139.43Z" fill="white"/>
<path d="M72.2584 139.834C72.6331 138.836 74.2513 138.669 74.32 138.663C74.41 138.657 74.4942 138.725 74.5032 138.822C74.5118 138.919 74.4435 139.005 74.351 139.014C73.9405 139.053 72.8204 139.3 72.5713 139.962C72.5455 140.031 72.482 140.074 72.4147 140.074C72.3944 140.074 72.3733 140.07 72.3533 140.062C72.2664 140.026 72.2243 139.924 72.2584 139.834Z" fill="white"/>
<path d="M72.4381 135.249L67.4764 133.391L72.6268 134.235L72.4381 135.249Z" fill="#CE8451"/>
<path d="M57.2648 133.391L56.7787 138.669C56.7787 138.669 57.3034 143.536 61.2767 140.346L63.1634 130.219L57.2648 133.391Z" fill="#FABC8B"/>
<path d="M66.2197 144.096H54.3496C54.3496 144.096 55.0188 136.699 56.9079 137.264C58.7969 137.829 59.0274 139.667 61.2766 138.631C62.9221 137.874 65.8678 139.723 67.3301 141.814C67.9931 142.762 67.3422 144.096 66.2197 144.096Z" fill="#31273E"/>
<path d="M65.0684 139.43C65.1599 139.426 65.2427 139.492 65.2516 139.589C65.2602 139.686 65.1919 139.771 65.0995 139.78C64.689 139.82 63.5689 140.068 63.3198 140.729C63.2939 140.799 63.2304 140.841 63.1632 140.841C63.1428 140.841 63.1218 140.837 63.1018 140.829C63.0148 140.793 62.9724 140.691 63.0066 140.6C63.3815 139.603 64.9998 139.436 65.0684 139.43Z" fill="white"/>
<path d="M62.0467 139.834C62.4214 138.836 64.0396 138.669 64.1083 138.663C64.1983 138.657 64.2825 138.725 64.2914 138.822C64.3001 138.919 64.2318 139.005 64.1393 139.014C63.7288 139.053 62.6087 139.3 62.3596 139.962C62.3337 140.031 62.2703 140.074 62.203 140.074C62.1826 140.074 62.1616 140.07 62.1416 140.062C62.055 140.026 62.0126 139.924 62.0467 139.834Z" fill="white"/>
<path d="M62.2262 135.249L57.2645 133.391L62.4149 134.235L62.2262 135.249Z" fill="#CE8451"/>
<path d="M44.4749 99.8369H68.0404C68.0404 99.8369 74.3765 101.128 75.9775 104.533C77.5785 107.938 74.2485 134.856 74.2485 134.856L66.357 133.531L66.9179 114.747L64.5614 134.587L55.9696 133.178C55.9696 133.178 57.7697 111.87 57.2646 111.342C56.7596 110.814 52.3019 111.371 46.8314 108.994C45.566 108.444 44.3066 104.112 44.4749 102.566C44.6433 101.021 44.4749 99.8369 44.4749 99.8369Z" fill="#614C9A"/>
<path d="M66.3983 132.152L66.9181 114.747C66.9181 114.747 67.9958 106.323 66.8398 105.766C65.6838 105.208 56.7788 101.774 56.7788 101.774C56.7788 101.774 66.2275 104.122 67.5967 105.766C68.7765 107.182 67.0034 126.766 66.4897 132.161L70.2906 132.714C71.1161 124.256 72.5591 108.191 72.17 107.33C71.7688 106.44 64.2105 103.077 61.3317 101.856C61.2886 101.838 61.2679 101.787 61.2855 101.741C61.3031 101.696 61.3528 101.674 61.3948 101.693C61.8198 101.873 71.8112 106.121 72.3221 107.255C72.8199 108.358 70.6335 130.931 70.4575 132.739L74.3467 133.304C74.3926 133.311 74.425 133.355 74.4188 133.403C74.4129 133.447 74.3767 133.479 74.3353 133.479C74.3319 133.479 74.3277 133.479 74.3239 133.478L70.3578 132.902H70.3571H70.3568L66.4728 132.338C66.4003 133.096 66.3569 133.531 66.3569 133.531L66.3928 132.326L66.3841 132.325C66.3383 132.318 66.3058 132.274 66.312 132.226C66.3186 132.18 66.3545 132.153 66.3983 132.152Z" fill="#260D56"/>
<path d="M47.3486 102.435C47.391 102.414 47.4407 102.433 47.4607 102.477C47.4718 102.501 48.5267 104.809 49.3374 105.624C50.1953 104.162 48.9251 101.973 48.9117 101.951C48.8872 101.91 48.8996 101.855 48.9389 101.829C48.9779 101.804 49.0303 101.816 49.0548 101.858C49.1114 101.954 50.4064 104.184 49.4688 105.738C49.9969 106.079 52.7218 106.63 55.3671 107.165C59.5371 108.007 62.2861 108.596 62.4921 109.075C62.8681 109.95 60.6637 130.858 60.4833 132.562L64.7178 133.304C64.7637 133.312 64.7947 133.358 64.7868 133.405C64.7802 133.448 64.7444 133.479 64.704 133.479C64.6995 133.479 64.6947 133.478 64.6902 133.477L60.3819 132.722H60.3815L56.0636 131.965C56.0177 131.957 55.9866 131.912 55.9946 131.864C56.0018 131.816 56.0463 131.781 56.0912 131.792L60.317 132.533C60.9908 126.175 62.6397 109.849 62.3386 109.148C62.153 108.716 58.3724 107.952 55.335 107.338C52.3324 106.731 49.7392 106.207 49.3104 105.839C49.3098 105.838 49.3091 105.838 49.3084 105.838L49.3077 105.837C49.306 105.835 49.3029 105.834 49.3015 105.832C48.4563 105.066 47.3555 102.655 47.3093 102.553C47.2886 102.509 47.3065 102.456 47.3486 102.435Z" fill="#260D56"/>
<path d="M75.3629 82.5082C75.3629 82.5082 73.8492 81.3706 74.3504 77.9431C74.8513 74.5156 75.138 76.0751 75.3294 77.1145C75.5205 78.1539 76.1346 79.3521 77.0463 77.6872C77.9581 76.0228 80.6357 71.3314 80.1569 73.3788C79.6781 75.4262 78.6977 76.8395 78.6977 76.8395C78.6977 76.8395 82.2699 71.3538 81.8169 73.3398C81.364 75.3262 79.6998 77.4483 79.6998 77.4483C79.6998 77.4483 82.6021 73.4149 82.4392 74.5474C82.2764 75.6796 80.8068 78.4718 80.8068 78.4718C80.8068 78.4718 82.9843 76.2938 82.4524 77.8045C81.9201 79.3146 78.4297 85.0211 75.3629 82.5082Z" fill="#FABC8B"/>
<path d="M36.2828 94.0845C36.8999 92.1056 44.2136 78.0059 44.2143 78.0048L44.7021 76.8788L52.3577 72.8706C52.3577 72.8706 58.0051 80.8585 58.8182 73.5304C58.8182 73.5304 65.1253 76.5948 65.8546 77.4169C66.5835 78.2391 67.8085 88.8279 67.8085 88.8279L73.476 80.0645L78.3921 83.3718L72.6691 94.7359C72.6691 94.7359 69.2746 100.189 68.1524 100.424C67.0302 100.659 52.5543 100.541 52.5543 100.541L44.2502 103.711V95.6021C44.1005 95.605 43.9552 95.6032 43.8014 95.6107C36.5212 95.963 36.0178 94.9344 36.2828 94.0845Z" fill="#FC7B54"/>
<path d="M52.2289 73.3478C52.2672 73.3221 52.3196 73.3337 52.3451 73.3748C53.8188 75.8001 55.938 77.3787 57.5117 77.2083C59.0648 77.042 59.3277 74.1912 59.3301 74.1623C59.3342 74.1143 59.3715 74.0761 59.4215 74.0826C59.4677 74.0869 59.5022 74.1298 59.4977 74.1782C59.487 74.3016 59.2197 77.2022 57.5286 77.3837C57.4697 77.3899 57.4093 77.3913 57.3493 77.3931V95.6104C57.3493 95.6587 57.3113 95.6984 57.2651 95.6984C57.2189 95.6984 57.1809 95.6587 57.1809 95.6104V77.3906C55.5982 77.3267 53.6053 75.7766 52.2034 73.469C52.1778 73.4286 52.1896 73.3741 52.2289 73.3478Z" fill="#FFDBE2"/>
<path d="M46.4106 79.8498C46.4106 79.8498 44.8116 89.7995 45.7372 90.2394C46.6631 90.6797 52.2737 92.3233 52.2737 92.3233C52.2737 92.3233 44.0537 91.4723 43.9696 90.7678C43.8857 90.0637 46.4106 79.8498 46.4106 79.8498Z" fill="#DB5B3E"/>
<path d="M49.7252 95.6108H48.9832L50.3737 92.1057L49.7252 95.6108Z" fill="#DB5B3E"/>
<path d="M64.4679 95.6108H62.3864L63.1632 80.202L64.4679 95.6108Z" fill="#DB5B3E"/>
<path d="M51.6459 87.3197C51.6663 87.2898 51.6773 87.2537 51.6773 87.2169V83.139C51.6773 83.0416 51.6021 82.9629 51.509 82.9629H47.8975C47.8043 82.9629 47.7291 83.0416 47.7291 83.139V87.2169C47.7291 87.2548 47.7405 87.2916 47.7622 87.3223C47.7978 87.3717 48.6423 88.5407 49.7834 88.5407C50.4623 88.5407 51.0888 88.13 51.6459 87.3197ZM51.3406 87.1591C50.8594 87.8423 50.3357 88.1881 49.7838 88.1881C48.9269 88.1881 48.2245 87.3576 48.0658 87.1552V83.3148H51.3406V87.1591Z" fill="#DB5B3E"/>
<path d="M52.2737 92.3233L51.5796 95.6104H57.7725C57.7725 95.6104 56.987 92.6755 52.2737 92.3233Z" fill="#FABC8B"/>
<path d="M124.367 144.096H111.73C110.243 144.096 109.037 142.71 109.037 141.001C109.037 139.292 110.243 137.907 111.73 137.907H121.674V101.8H88.514H54.5966H40.0982V144.096H31.3805H19.5629H18.7436C17.2561 144.096 16.0504 142.71 16.0504 141.001V98.7055C16.0504 96.9963 17.2561 95.6108 18.7436 95.6108H54.5966H88.514H124.367C125.456 95.6108 126.392 96.3553 126.816 97.4239H145.793V144.097H125.258L124.367 144.096Z" fill="#AF4945"/>
<path d="M93.6583 139.358C94.3655 138.952 94.9664 136.984 95.467 134.319V113.456H100.215V134.15C100.722 136.9 101.333 138.944 102.055 139.358C104.704 140.878 112.197 140.759 112.197 144.097H97.8566H83.5159C83.5159 140.759 91.0096 140.878 93.6583 139.358Z" fill="white"/>
<path d="M100.215 115.921C100.215 115.921 98.0129 117.363 95.4667 117.346V113.455H100.215V115.921Z" fill="#8E7ED6"/>
<path d="M120.226 111.342C120.226 111.342 100.944 118.151 89.0212 112.868C77.0983 107.585 81.0258 90.4452 83.0456 85.045C85.0654 79.6444 99.7659 77.8886 105.04 85.752C110.314 93.615 120.599 100.776 120.226 111.342Z" fill="white"/>
<path d="M86.7472 95.5826C81.3032 88.2653 87.7093 81.388 87.7935 81.2985C93.1436 79.4698 101.371 80.2814 105.04 85.7516C107.12 88.8518 109.977 91.8433 112.654 94.977C106.493 104.074 90.7709 100.991 86.7472 95.5826Z" fill="#8E7ED6"/>
<path d="M102.987 73.922C102.987 73.922 102.163 76.54 103.381 78.4517C104.6 80.3634 102.725 88.5758 100.065 86.585C97.4048 84.5943 95.9684 74.3844 95.9684 74.3844C95.9684 74.3844 98.2072 72.4185 98.6967 70.448C99.1866 68.4771 103.505 72.1706 102.987 73.922Z" fill="#EAA373"/>
<path d="M98.1241 71.7879C98.3749 71.357 98.5836 70.903 98.6971 70.4476C99.187 68.477 103.505 72.1705 102.988 73.922C102.988 73.922 100.713 74.2334 98.1241 71.7879Z" fill="#CE8451"/>
<path d="M96.0062 68.2612C95.2935 66.8645 95.3021 65.405 96.0248 65.0016C96.4885 64.7424 97.1332 64.9828 97.7245 65.5555C98.055 65.8757 98.3685 66.2986 98.6242 66.7992C98.6297 66.81 98.6342 66.8209 98.6397 66.8313C99.3131 68.1732 99.321 69.5616 98.6711 70.0134C98.6493 70.0286 98.6286 70.0459 98.6055 70.0589C98.5138 70.1101 98.4148 70.1415 98.3109 70.1549C97.5944 70.2487 96.6282 69.4807 96.0062 68.2612Z" fill="#E89997"/>
<path d="M107.529 66.0709C107.529 66.0709 107.038 67.8834 107.142 69.3822C107.246 70.881 105.589 73.1782 104.203 73.8209C102.818 74.4641 100.091 72.8198 99.1172 71.6689C98.1433 70.5179 97.5593 67.6751 97.5676 66.4044C97.5759 65.1336 99.625 60.1813 103.056 60.9407C106.488 61.7 108.263 62.9729 107.529 66.0709Z" fill="#FABC8B"/>
<path d="M96.9945 73.3344C96.9945 73.3344 91.7737 74.127 90.764 75.3595C89.7539 76.5923 85.7144 101.686 85.7144 101.686H120.894L118.537 92.9693C118.537 92.9693 112.562 91.7365 111.636 91.1204C110.71 90.504 106.839 76.5042 105.997 76.0639C105.155 75.6236 102.808 74.7448 102.808 74.7448C102.808 74.7448 101.273 79.8462 96.9945 73.3344Z" fill="#FFDBE2"/>
<path d="M103.95 80.4189C103.95 80.4189 103.451 80.8477 102.999 79.6148C102.547 78.382 102.63 77.2964 102.63 77.2964C102.63 77.2964 101.823 77.3256 101.376 76.768C101.376 76.768 98.8504 77.7381 97.7672 76.6074C96.684 75.4767 96.9924 73.3348 96.9924 73.3348L96.9989 73.3395C99.0384 76.4414 100.453 76.9023 101.376 76.5374C102.094 76.2534 102.515 75.4713 102.698 75.0397L102.78 74.9469L102.826 74.751C103.005 74.8181 105.191 75.6413 105.998 76.0636C106.327 76.2353 107.116 78.4701 108.011 81.1671C108.01 81.1707 107.539 82.9189 105.774 81.8838C104.006 80.8477 103.95 80.4189 103.95 80.4189Z" fill="#FFB7C3"/>
<path d="M93.9624 80.4189C96.0946 81.8979 94.0186 89.7407 94.0186 89.7407C96.9922 89.3884 103.762 92.1057 103.762 92.1057L93.1631 90.5884L93.9624 80.4189Z" fill="#FFB7C3"/>
<path d="M103.761 81.8838C104.022 80.0144 105.352 95.4931 105.352 95.4931L104.348 95.5303C104.348 95.5303 103.501 83.7533 103.761 81.8838Z" fill="#FFB7C3"/>
<path d="M96.9918 73.3348L101.375 76.5374C101.375 76.5374 96.2915 78.9259 96.9918 73.3348Z" fill="white"/>
<path d="M101.375 76.5371L102.779 74.9466C103.712 78.291 101.375 76.5371 101.375 76.5371Z" fill="white"/>
<path d="M103.375 92.0505L102.825 95.6108H108.663C108.663 95.6108 108.439 92.7752 103.375 92.0505Z" fill="#FABC8B"/>
<path d="M118.538 92.9693L118.622 95.6108H123.451C123.451 95.6108 123.644 93.38 118.538 92.9693Z" fill="#FABC8B"/>
<path d="M102.537 141.431C102.537 141.431 101.362 139.882 101.42 138.715C101.478 137.549 104.187 131.19 104.187 131.19L99.9542 130.038L98.5702 134.671C98.5702 134.671 96.8095 136.157 97.7433 138.231C98.6768 140.305 101.901 143.852 102.537 141.431Z" fill="#FABC8B"/>
<path d="M98.5696 134.671C98.5696 134.671 97.3409 135.245 97.1698 136.108C96.9987 136.971 97.4878 138.149 97.4264 139.268C97.365 140.388 96.9669 142.688 96.9669 142.688L97.5365 142.843L98.4279 140.132C98.4279 140.132 98.391 143.076 99.9371 143.497C101.483 143.918 104.367 145.248 104.014 143.698C103.661 142.147 102.536 141.432 102.536 141.432C102.536 141.432 100.387 142.211 99.6356 139.643C98.8843 137.074 97.9087 135.582 98.5696 134.671Z" fill="#231527"/>
<path d="M98.8436 133.754L102.187 136.181L102.481 135.078L98.8436 133.754Z" fill="#CE8451"/>
<path d="M118.224 141.412C118.224 141.412 116.714 140.222 116.49 139.078C116.266 137.933 117.357 131.065 117.357 131.065H112.983L112.759 135.914C112.759 135.914 111.412 137.816 112.815 139.577C114.217 141.337 118.191 143.922 118.224 141.412Z" fill="#FABC8B"/>
<path d="M112.758 135.913C112.758 135.913 111.707 136.793 111.749 137.673C111.791 138.553 112.548 139.564 112.758 140.664C112.968 141.764 113.137 144.095 113.137 144.095H113.725L113.935 141.236C113.935 141.236 114.608 144.095 116.206 144.095C117.803 144.095 120.914 144.623 120.2 143.215C119.485 141.807 118.224 141.411 118.224 141.411C118.224 141.411 116.332 142.731 114.986 140.444C113.641 138.157 112.338 136.969 112.758 135.913Z" fill="#231527"/>
<path d="M112.758 135.913L116.586 136.76L116.691 135.824L112.758 135.913Z" fill="#CE8451"/>
<path d="M92.335 72.6003C94.3548 69.4894 95.2269 67.2774 95.477 64.5584C95.7098 62.0255 96.8103 60.055 98.3865 58.9005C98.0091 58.6894 97.74 58.3978 97.6265 58.03C97.2443 56.7889 98.7504 55.1706 100.99 54.4159C103.23 53.6613 105.356 54.0557 105.738 55.2969C106.014 56.1937 105.302 57.2855 104.042 58.108C104.312 58.1964 104.584 58.301 104.857 58.4245C109.402 60.4791 108.269 67.7545 107.933 69.8838C107.596 72.0132 107.999 76.1354 108.303 78.3885C108.52 80.0025 108.377 81.0003 107.6 81.6106C107.012 82.0895 106.364 81.8781 105.789 81.4417C105.123 81.0599 104.591 80.3403 104.171 79.516C104.168 79.5127 104.166 79.5091 104.166 79.5091C104.166 79.5091 104.019 80.73 103.304 79.6733C102.589 78.6166 102.799 74.9628 102.799 74.9628L102.778 74.9466C102.859 74.3341 102.987 73.9216 102.987 73.9216C102.987 73.9205 102.987 73.9194 102.988 73.9184C103.443 73.9952 103.863 73.9783 104.203 73.8209C105.588 73.1778 107.246 70.881 107.141 69.3822C107.061 68.223 107.335 66.8797 107.464 66.3289C107.464 66.3289 106.339 65.7753 106.474 64.0892C106.474 64.0892 103.218 66.4686 102.63 64.8973C102.63 64.8973 99.2923 66.3142 99.5166 64.7615L98.3316 65.2863C98.3316 65.2863 98.442 69.9271 98.1236 69.6056C97.8062 69.2847 97.1787 65.156 97.1753 65.1333C96.7568 64.8868 96.347 64.8215 96.0245 65.0012C95.3014 65.405 95.2931 66.8645 96.0058 68.2609C96.6278 69.4803 97.5941 70.2483 98.3102 70.1549C98.3954 70.3848 98.4896 70.6002 98.5876 70.8056C98.5624 70.8763 98.5334 70.9467 98.5044 71.0174C98.4882 71.0578 98.4734 71.0983 98.4558 71.1387C98.4123 71.2379 98.3651 71.3368 98.3151 71.4346C98.3095 71.4451 98.3047 71.4559 98.2995 71.4667C98.2436 71.575 98.185 71.6826 98.1233 71.7883C97.7855 72.3683 97.3685 72.9024 96.9911 73.3348C96.9366 73.3431 93.025 73.9418 91.3467 74.9043C91.425 74.3327 91.6989 73.5802 92.335 72.6003Z" fill="#010000"/>
<path d="M97.5674 70.986C97.5674 71.2859 97.6919 71.5288 97.8458 71.5288C97.9996 71.5288 98.1242 71.2856 98.1242 70.986C98.1242 70.6865 97.9996 70.4429 97.8458 70.4429C97.6919 70.4429 97.5674 70.6865 97.5674 70.986Z" fill="white"/>
<path d="M87.9644 101.816C87.9644 101.816 88.3373 110.99 93.1627 111.107C97.9881 111.224 103.304 112.301 103.304 112.301L97.8456 133.391L104.532 135.824L111.143 116.512L111.917 135.824H118.088C118.088 135.824 121.904 109.229 120.894 108.055C119.884 106.881 107.692 101.816 107.692 101.816L87.9644 101.816Z" fill="#31273E"/>
<path d="M113.319 107.497C112.592 106.888 103.332 103.088 100.836 102.069L87.9646 101.816H107.693L108.663 102.224L101.16 102.076C104.222 102.931 113.736 105.698 114.582 107.322C115.592 109.259 112.38 115.133 112.176 117.347C111.973 119.561 111.917 135.825 111.917 135.825L111.143 116.512C111.143 116.512 114.161 108.202 113.319 107.497Z" fill="#231527"/>
<path d="M40.3508 95.6108H76.2038H110.121H145.974C147.462 95.6108 148.667 96.9966 148.667 98.7055V141.001C148.667 142.711 147.462 144.096 145.974 144.096H133.337C131.85 144.096 130.644 142.71 130.644 141.001C130.644 139.292 131.85 137.907 133.337 137.907H143.281V101.8H110.121H76.2038H43.0439V137.907H52.9877C54.4752 137.907 55.6809 139.293 55.6809 141.001C55.6809 142.711 54.4752 144.096 52.9877 144.096H40.3508C38.8633 144.096 37.6576 142.71 37.6576 141.001V98.7055C37.6576 96.9963 38.8633 95.6108 40.3508 95.6108Z" fill="#E0665C"/>
<path d="M63.4899 94.3086L68.5102 81.9152C68.5851 81.7308 68.7579 81.611 68.9494 81.611H86.7012C87.0427 81.611 87.2735 81.9755 87.1403 82.3046L81.8733 95.3065C81.7985 95.4909 81.6256 95.6108 81.4342 95.6108H64.7297H62.9625H54.8267C54.5631 95.6108 54.3496 95.3874 54.3496 95.1116C54.3496 94.8359 54.5631 94.6125 54.8267 94.6125H63.0508C63.2422 94.6129 63.4151 94.493 63.4899 94.3086Z" fill="#5B3B6D"/>
<path d="M64.4678 95.6108H82.2196C82.411 95.6108 82.5839 95.4909 82.6587 95.3065L87.9254 82.3047C88.0585 81.9755 87.8278 81.611 87.4862 81.611H69.7345C69.543 81.611 69.3702 81.7308 69.2953 81.9153L64.0283 94.9171C63.8955 95.2459 64.1263 95.6108 64.4678 95.6108Z" fill="#1E1223"/>
<path d="M74.0702 91.8448C74.7508 92.804 76.3514 92.7672 77.6451 91.7621C78.9391 90.7574 79.4362 89.1651 78.7555 88.2058C78.0749 87.2465 76.4743 87.2837 75.1806 88.2884C73.8866 89.2932 73.3895 90.8855 74.0702 91.8448Z" fill="white"/>
<path d="M110.556 94.3086L115.577 81.9153C115.652 81.7308 115.824 81.611 116.016 81.611H133.768C134.109 81.611 134.34 81.9755 134.207 82.3047L128.94 95.3065C128.865 95.4909 128.692 95.6108 128.501 95.6108H111.796H110.029H101.893C101.63 95.6108 101.416 95.3874 101.416 95.1116C101.416 94.8359 101.63 94.6125 101.893 94.6125H110.117C110.309 94.6129 110.482 94.4931 110.556 94.3086Z" fill="#7255AA"/>
<path d="M111.535 95.6108H129.286C129.478 95.6108 129.651 95.491 129.725 95.3065L134.992 82.3047C135.126 81.9755 134.895 81.611 134.553 81.611H116.802C116.61 81.611 116.437 81.7308 116.362 81.9153L111.095 94.9171C110.962 95.2459 111.193 95.6108 111.535 95.6108Z" fill="#614C9A"/>
<path d="M120.772 91.8448C121.453 92.804 123.053 92.7672 124.347 91.7621C125.641 90.7574 126.138 89.1651 125.457 88.2058C124.777 87.2465 123.176 87.2837 121.882 88.2884C120.588 89.2932 120.091 90.8855 120.772 91.8448Z" fill="white"/>
<path d="M40.2543 93.0714H28.6924C28.0221 93.0714 27.4788 93.6399 27.4788 94.3411C27.4788 95.0423 28.0221 95.6108 28.6924 95.6108H40.2543C40.9246 95.6108 41.468 95.0423 41.468 94.3411C41.4676 93.6399 40.9243 93.0714 40.2543 93.0714Z" fill="#8D63A8"/>
<path d="M34.7987 93.0715H20.8098V95.6108H34.7987V93.0715Z" fill="#5B3B6D"/>
<path d="M40.378 93.8582H20.7734V95.0564H40.378V93.8582Z" fill="#EFEAF4"/>
<path d="M34.7985 93.8582H20.7734V95.0564H34.7985V93.8582Z" fill="#BFB3CE"/>
<path d="M41.6916 90.5885H30.13C29.4597 90.5885 28.9164 91.1569 28.9164 91.8581C28.9164 92.5593 29.4597 93.1278 30.13 93.1278H41.6916C42.3619 93.1278 42.9052 92.5593 42.9052 91.8581C42.9052 91.1569 42.3619 90.5885 41.6916 90.5885Z" fill="#FFDBE2"/>
<path d="M36.2359 90.5885H22.2471V93.1278H36.2359V90.5885Z" fill="#FFB7C3"/>
<path d="M41.8155 91.3752H22.2109V92.5734H41.8155V91.3752Z" fill="#EFEAF4"/>
<path d="M36.236 91.3752H22.2109V92.5734H36.236V91.3752Z" fill="#BFB3CE"/>
<path d="M11.8054 90.2069C11.8054 91.1272 11.0923 91.8732 10.2123 91.8732C9.33232 91.8732 8.61926 91.1272 8.61926 90.2069C8.61926 89.2866 9.33232 88.5407 10.2123 88.5407C11.0923 88.5407 11.8054 89.2866 11.8054 90.2069Z" fill="#EFEAF4"/>
<path d="M16.4704 32.9985C17.7406 32.9985 18.7704 31.9213 18.7704 30.5924C18.7704 29.2635 17.7406 28.1863 16.4704 28.1863C15.2002 28.1863 14.1705 29.2635 14.1705 30.5924C14.1705 31.9213 15.2002 32.9985 16.4704 32.9985Z" stroke="#EFEAF4" stroke-miterlimit="10"/>
<path d="M136.144 48.3362C136.767 48.3362 137.273 47.8073 137.273 47.1549C137.273 46.5026 136.767 45.9737 136.144 45.9737C135.52 45.9737 135.015 46.5026 135.015 47.1549C135.015 47.8073 135.52 48.3362 136.144 48.3362Z" fill="#EFEAF4"/>
<path d="M101.772 4.49231C102.826 4.49231 103.68 3.5986 103.68 2.49616C103.68 1.39371 102.826 0.500008 101.772 0.500008C100.719 0.500008 99.8644 1.39371 99.8644 2.49616C99.8644 3.5986 100.719 4.49231 101.772 4.49231Z" fill="#EFEAF4"/>
<path d="M22.3031 120.911C22.143 120.802 21.9295 120.851 21.826 121.018C19.9973 123.968 19.1114 126.542 18.6913 128.504C17.8382 125.002 15.8197 121.678 15.7159 121.508C15.6131 121.34 15.3996 121.291 15.2395 121.399C15.0791 121.507 15.0322 121.73 15.1353 121.898C15.1653 121.947 18.119 126.809 18.3608 130.807C18.2915 131.846 18.3704 132.455 18.3801 132.523C18.4053 132.702 18.5526 132.831 18.7209 132.831C18.7375 132.831 18.7544 132.83 18.7713 132.827C18.9597 132.798 19.0901 132.615 19.0631 132.418C19.0566 132.372 18.4764 127.749 22.4056 121.41C22.5084 121.243 22.4628 121.02 22.3031 120.911Z" fill="#614C9A"/>
<path d="M22.1081 116.716C18.7008 113.567 17.3999 114.566 17.5075 111.327C17.6152 108.089 15.8651 105.584 14.1707 105.118C12.4762 104.652 10.4922 104.736 9.70675 101.169C8.92126 97.6022 5.85518 97.2178 4.43252 97.9624C3.00987 98.7069 1.46475 101.504 3.72223 104.301C5.97936 107.098 4.72575 108.708 4.06547 110.406C3.4052 112.104 4.27211 115.072 6.81385 116.924C9.35558 118.776 7.81115 119.266 8.17682 124.007C8.54248 128.748 18.0026 126.343 18.0026 126.343C18.0026 126.343 25.5153 119.866 22.1081 116.716Z" fill="#9278D1"/>
<path d="M17.3072 114.848L14.3504 118.706L12.5742 114.991L11.3074 112.342L13.2093 107.432L11.0132 111.726L9.02548 107.569L4.96484 99.0765L8.67085 107.304L5.18769 105.278L8.81194 107.618L12.1585 115.047L5.99837 113.259L12.6004 116.028L15.8735 123.49L10.2436 122.138L16.412 124.491L17.3906 126.664L18.0023 126.343L14.7185 119.475L17.3072 114.848Z" fill="#614C9A"/>
<path d="M15.9135 115.027C19.3207 111.877 20.6216 112.876 20.514 109.638C20.4064 106.399 22.1564 103.894 23.8509 103.428C25.5454 102.963 27.5293 103.046 28.3148 99.4793C29.1003 95.9125 32.1663 95.5281 33.589 96.2726C35.0117 97.0172 36.5568 99.8145 34.2996 102.611C32.0425 105.408 33.2961 107.019 33.9564 108.717C34.6163 110.415 33.7498 113.382 31.208 115.234C28.6666 117.086 30.2107 117.576 29.8451 122.318C29.4794 127.059 20.0193 124.654 20.0193 124.654C20.0193 124.654 12.5062 118.176 15.9135 115.027Z" fill="#D1D1F4"/>
<path d="M20.7144 113.158L23.6711 117.016L25.447 113.301L26.7141 110.652L24.8123 105.742L27.0084 110.036L28.9961 105.879L33.0567 97.3864L29.3511 105.614L32.8339 103.588L29.2096 105.928L25.8631 113.357L32.0232 111.569L25.4212 114.338L22.1481 121.801L27.778 120.448L21.6096 122.801L20.6309 124.973L20.0193 124.654L23.303 117.785L20.7144 113.158Z" fill="#614C9A"/>
<path d="M26.216 138.028C26.216 136.177 25.2293 134.522 23.6787 133.409C23.659 132.605 23.0329 131.959 22.2595 131.959H15.7624C14.9889 131.959 14.3628 132.605 14.3432 133.41C12.7922 134.523 11.8059 136.177 11.8059 138.028C11.8059 139.879 12.7925 141.533 14.3432 142.646C14.3628 143.45 14.9889 144.097 15.7624 144.097H22.2595C23.0329 144.097 23.659 143.451 23.6787 142.646C25.2293 141.533 26.216 139.878 26.216 138.028Z" fill="white"/>
<path d="M14.3429 133.59H23.6788C23.774 133.59 23.8513 133.509 23.8513 133.409C23.8513 133.31 23.774 133.229 23.6788 133.229H14.3429C14.2477 133.229 14.1704 133.31 14.1704 133.409C14.1704 133.509 14.2477 133.59 14.3429 133.59Z" fill="#8E7ED6"/>
<path d="M23.6788 142.465H14.3429C14.2477 142.465 14.1704 142.546 14.1704 142.646C14.1704 142.745 14.2477 142.826 14.3429 142.826H23.6788C23.774 142.826 23.8513 142.745 23.8513 142.646C23.8513 142.546 23.774 142.465 23.6788 142.465Z" fill="#8E7ED6"/>
</svg>
